<svg width="10254" height="10434" viewBox="0 0 10254 10434" fill="none" xmlns="http://www.w3.org/2000/svg">
<path d="M6794.42 7805.96L3473.16 7839.53C3430.63 7921.29 3293.75 8762.09 3062.53 10361.9L8012.02 10408.6L8086.38 10035.4L8599.26 10295.6L8036.78 10007.1L6797.14 7810.77" fill="#E3A289"/>
<path d="M6794.42 7805.96L6012.7 7813.86L4408.55 9323.53L5013.11 9610.25L5021.08 10039.3C4991.06 10044.9 4959.73 10047.8 4927.09 10047.8C4753.81 10047.8 4543.39 9968.39 4295.82 9809.64H4295.82C4567.89 10004.5 4778.82 10101.9 4928.61 10101.9C4935.24 10101.9 4941.76 10101.7 4948.15 10101.3C4967.65 10102.4 4988.19 10102.9 5009.75 10102.9C5049.98 10102.9 5093.79 10101.1 5141.18 10097.5L5723.8 9881.12L5582.42 10385.7L7006.23 10399.1L7592.64 9327.8L7502.28 9060.12L7502.28 9060.12L6797.14 7810.77L6794.42 7805.96Z" fill="#C27D63"/>
<path d="M3327.67 8599C3260.47 9016.23 3172.1 9603.87 3062.53 10361.9L4254.46 10373.2H4254.46C4104.8 10244.2 3989.23 10119.7 3907.76 9999.74C3706.88 9738.17 3513.52 9271.26 3327.68 8599H3327.67Z" fill="#C27D63"/>
<path d="M6834.13 7889.37L6789.25 10088.1L7333.51 8761.1L6843.68 7893.23L6834.4 7889.48L6834.13 7889.37Z" fill="#8D472B"/>
<path d="M3406.08 8475.88L3302.13 8759.25H3302.14C3238.6 9162.09 3158.73 9696.32 3062.53 10361.9L3745.63 10368.4H3745.63C3646.25 10208.4 3577.69 10050.6 3539.93 9895.05C3467.24 9648.44 3422.63 9175.69 3406.11 8476.78L3406.08 8475.88Z" fill="#8D472B"/>
<path d="M6833.65 7811.88L6502.34 8432.41L6743.01 8217.61L6812.74 9000.83L6833.64 7812.11" fill="#FDCCB9" fill-opacity="0.913725"/>
<path d="M3384.57 8068.08C3356.3 8067.34 3214.53 8272.83 2959.27 8684.53C2339.57 8899.23 1869.05 9098.47 1547.69 9282.24C1390.42 9293.3 1262.3 9328.56 1163.34 9388.03C1094.6 9427.38 1011.07 9490 912.767 9575.87L4.79053 10396.1L3413.67 10391.3L3281.43 10143.4C3359 9822.13 3402.5 9543.64 3411.92 9307.87C3425.75 9120.34 3416.64 8708.11 3384.6 8071.18" fill="black"/>
<path d="M6906.82 7732.62L6803.66 7882.71L6824.5 8249.59C6931.46 8316.76 6996.16 8387.83 7018.58 8462.81C7049.93 8548.08 7053.01 8671.66 7027.82 8833.53C6935.85 9349.64 6764.16 9866.75 6512.75 10384.9L10198.3 10417.1C10190.9 9996.49 10059 9691.85 9802.56 9503.19C9433.91 9209.6 8780.85 8926.07 7843.37 8652.61C7758.63 8529.14 7692.72 8441.57 7645.64 8389.9C7582.46 8316.94 7489.22 8239.96 7365.91 8158.97C7311.99 8063.46 7262.19 7994.02 7216.52 7950.63C7164.96 7897.22 7063.35 7825.53 6911.7 7735.59" fill="black"/>
<path d="M7783.12 8566.49C7933.94 8821.72 8030.47 9010.86 8072.72 9133.89C8141.33 9308.11 8161.88 9511.7 8134.35 9744.67L8692.98 10091.6L8127.75 8858.81L8749.01 9162.84L9536.14 10152.2L9108.17 9344.76H9108.22C9414.08 9462.74 9629.61 9568.39 9754.79 9661.71C9870.04 9740.04 10005.2 9879.58 10160.4 10080.3C10103.9 9829.49 9984.57 9637.11 9802.56 9503.19C9433.91 9209.6 8780.85 8926.07 7843.37 8652.61C7822.12 8621.65 7802.05 8592.94 7783.16 8566.49H7783.12Z" fill="#405152"/>
<path d="M3384.42 8068.08C3355.79 8068.08 3214.07 8273.56 2959.27 8684.53C2339.57 8899.23 1869.05 9098.47 1547.69 9282.24C1390.41 9293.3 1262.3 9328.56 1163.34 9388.03C1094.6 9427.38 1011.07 9490 912.767 9575.87L452.589 9991.59C812.622 9788.94 1093.44 9647.05 1295.05 9565.93C1530.83 9465.25 1877.43 9354.51 2334.88 9233.72H2334.9L2073.46 9974.18C2236.95 9619.29 2367.03 9379.89 2463.69 9255.97C2558.77 9124.66 2702.12 8996.07 2893.73 8870.23H2893.75C2858.65 8916.23 2720.43 9423.7 2479.08 10392.6L2624.84 10392.4H2624.85C2693.33 10221.6 2768.73 10122 2851.05 10093.7C2885.24 10076.4 2930.29 10059.2 2986.2 10042.1L3010.22 10226.5L3114.08 9317.29L3390.71 8195.94H3390.72C3388.78 8155.36 3386.74 8113.77 3384.59 8071.18L3384.57 8068.08C3384.52 8068.08 3384.47 8068.08 3384.42 8068.08Z" fill="#405152"/>
<path d="M3010.25 10226.8L2991.39 10391.9L2986.68 10433.2L2995.78 10391.9L3017.79 10291.9L3010.33 10227.5L3010.25 10226.8Z" fill="#40332D"/>
<path d="M3287.49 8054.11C3271.66 8054.53 3258.76 8061.56 3248.79 8075.18C3110.23 8293.08 3008.68 8459.96 2944.15 8575.81C2834.4 8770.61 2751.89 8946.62 2696.61 9103.84C2628.57 9292.6 2574.51 9526.75 2534.44 9806.3C2520.6 9901.66 2507.21 10003.2 2494.27 10110.9C2496.19 10138.9 2512.1 10154.8 2542.01 10158.4C2566.22 10156.5 2581.64 10144.5 2588.26 10122.2C2638.8 9682.5 2704.75 9354.03 2786.13 9136.83C2863.11 8903.53 3045.1 8564.89 3332.08 8120.9C3338.28 8102.39 3336.84 8087.06 3327.77 8074.9C3317.85 8061.48 3304.97 8054.55 3289.12 8054.11" fill="black"/>
<path d="M2959.73 8618.21C2950.44 8613.21 2937.58 8613.55 2921.15 8619.23C2611.14 8736.52 2371.16 8832.69 2201.2 8907.74C2046.3 8975.03 1821.88 9080.27 1527.94 9223.47C1382.09 9282.18 1271.11 9329.72 1195.01 9366.08C1100.89 9410.51 1015.1 9456.33 937.645 9503.52C762.297 9606.67 556.688 9775.21 320.816 10009.2C228.687 10100 124.881 10205.8 9.39677 10326.3C-7.04056 10357.7 -0.69113 10381.7 28.4449 10398.4C48.6847 10405.2 65.3845 10402.8 78.5445 10391.1C338.487 10120.1 536.162 9928.11 671.571 9815.09C781.364 9721.8 887.865 9644.33 991.076 9582.67C1067.52 9536.51 1149.04 9493.08 1235.64 9452.4C1311.83 9416.09 1422.85 9368.54 1568.69 9309.75C1848.95 9173.43 2056.16 9075.79 2190.32 9016.81C2366.64 8937.31 2623.81 8833.61 2961.83 8705.69C2998.53 8679.37 2998.66 8650.58 2962.25 8619.32" fill="black"/>
<path d="M2510.12 5827.21C2497.29 5825.31 2485.47 5828.15 2474.66 5835.73C2464.1 5843.67 2457.74 5854.03 2455.59 5866.82C2453.66 5879.64 2456.49 5891.47 2464.05 5902.29C2471.98 5912.86 2482.33 5919.24 2495.11 5921.41C2507.93 5923.36 2519.76 5920.56 2530.59 5913.01C2541.18 5905.1 2547.57 5894.76 2549.77 5881.98C2551.73 5869.17 2548.95 5857.33 2541.42 5846.48C2533.59 5835.89 2523.2 5829.48 2510.23 5827.23" fill="black"/>
<path d="M10034.3 9688.7C9883.67 9456.45 9621.29 9259.46 9247.22 9097.72C8976.11 8973.07 8476.86 8798.63 7749.47 8574.42C7697.3 8577.52 7680.54 8602.16 7699.18 8648.34C7706.86 8657.98 7714.93 8663.9 7723.39 8666.12C8334.17 8855.7 8762.39 9000.55 9008.04 9100.68C9283.25 9209.63 9491.76 9315.55 9633.58 9418.46C9795.47 9533.71 9915.65 9662.94 9994.13 9806.16C10033.8 9878.08 10067.4 9956.31 10094.9 10040.9C10124 10127 10145.6 10240.3 10159.9 10380.8C10164.7 10396.7 10174.3 10407.5 10188.6 10413.2C10223.2 10421.4 10244.9 10408.4 10253.5 10374.4C10246 10287.8 10235.2 10211.1 10220.9 10144.1C10183.5 9975.99 10121.9 9825.02 10036 9691.24" fill="black"/>
<path d="M6594.84 1047.25C6182.69 893.169 5493.81 830.145 4528.21 858.181C3696.21 888.537 3126.3 1000.11 2818.48 1192.9C2487.57 1351.58 2247.03 1843.09 2096.86 2667.42L2037.46 2978.62L2244.27 4040.47C2033.22 3935.53 1901 3881.77 1847.59 3879.18C1790.2 3871.3 1749.61 3901.48 1725.84 3969.71C1660.74 4033.14 1820 4467.04 2203.62 5271.41C2112.35 5726.03 2241.98 6294.43 2592.51 6976.59C2655.88 7151.65 3083.44 7799.51 3875.2 8920.18C4047.87 9145.8 4273.06 9316.32 4550.75 9431.72C4724.76 9507.63 5074.43 9488.15 5599.76 9373.29C5825.31 9323.26 6039.12 9191.47 6241.19 8977.93C6666.99 8530.2 7002.63 8067.5 7248.11 7589.81C7428.74 7253.38 7582.41 6731.76 7709.13 6024.96C7903.7 6032.6 8000.66 6009.71 8000.01 5956.29C8004.55 5934.68 8003.31 5912.42 7996.3 5889.52C7930.75 5712.87 7895.62 5603.37 7890.9 5561C7875.7 5477.71 7872.7 5405.11 7881.91 5343.19C7888.05 5286.26 7906.67 5212.13 7937.79 5120.81C8128.76 4670.44 8223.15 4422.92 8220.97 4378.25C8271.35 4177.38 8279.02 4006.41 8243.98 3865.34C8217.52 3736.57 8096.29 3689.42 7880.27 3723.91L7090.04 1508.4C6987.35 1284.69 6822.48 1131.06 6595.44 1047.49" fill="#E3A289"/>
<path d="M7265.18 3910.41L6701.27 3753.68L5882.03 3856.4L5214.84 4053.06L4992.24 4228.74L5454.43 5127.82L6333.51 5218.52C6107.05 5188.83 5964.65 5150.97 5906.3 5104.97C5838.68 5062.85 5796.11 4973.14 5778.6 4835.84C6085.88 4869.81 6286.24 4863 6379.68 4815.43C6484.99 4775.46 6574.73 4658.74 6648.9 4465.26L6214.99 4256.35L5758.61 4184.97C5967.31 4100.63 6128.68 4048.34 6242.72 4028.09C6365.32 4003.61 6488.44 4001.03 6612.08 4020.35C6931.35 4073.95 7134.45 4202.63 7221.38 4406.39L7265 3912.42" fill="#C27D63"/>
<path d="M4304.7 5635.41C4251.54 5634.07 4139.29 5683.82 3967.96 5784.65C3754.12 5911.72 3584.46 6026.95 3458.96 6130.35C3380.8 6194.5 3309.27 6269.39 3244.35 6355.01C3318.33 6366.08 3378.82 6371.29 3425.82 6370.64C3508.21 6370.52 3574.37 6348.96 3624.33 6305.94C3644.5 6289.31 3665.29 6268.35 3686.71 6243.07L3807.67 6087.56C3826.33 6064.49 3847.27 6040.89 3870.49 6016.77C3918.11 5966.5 3992.82 5900.42 4094.63 5818.55L4052.2 5932.16L4065.49 6013.13C4093.53 6061.53 4122.58 6095.24 4152.64 6114.25C4187.67 6138.62 4239.13 6155.03 4307.01 6163.47C4366.94 6172.24 4473.48 6177.01 4626.64 6177.79L4441.51 6086.62L4270.1 6076.47L4227.94 6067.26C4171.93 6054.54 4136.78 6035.44 4122.5 6009.97C4092.66 5957.64 4125.99 5861.64 4222.5 5721.97C4254.98 5679.28 4282.2 5655.03 4304.17 5649.23C4324.09 5641.25 4347.64 5650.84 4374.82 5678C4358.91 5648.53 4336.01 5634.33 4306.12 5635.39" fill="#C27D63"/>
<path d="M7153.68 5098.49C6941 5199.43 6781.45 5250.5 6675.04 5251.69C6592.73 5257.46 6479.57 5247.03 6335.54 5220.4L5612.01 5190.5L5016.74 4378.03C4890.09 4369.18 4764.98 4351.15 4641.4 4323.93L4826.54 4363.45L4953.31 5695.31C5064.93 5777.62 5121.17 5841.93 5122.01 5888.25C5126.22 5961.44 5080.72 6032.11 4985.49 6100.24C4919.81 6148.41 4813.82 6180.07 4667.55 6195.22L4774.77 6235.69L4906.01 6238.42L4919.77 6457.81L6092.95 6395.92C6087.28 6161.67 6058.16 5996.01 6005.61 5898.94C5955.22 5788.01 5822.98 5664.16 5608.89 5527.37L5571.45 5363.9C5982.78 5423.33 6273.74 5435.87 6444.34 5401.51C6627.33 5376.49 6862.62 5276.16 7150.21 5100.52" fill="#C27D63"/>
<path d="M5983.61 1011.71L6122.61 3396.06C6308.35 3429.34 6436.09 3468.7 6505.84 3514.13C6581.25 3555.47 6673.08 3647.45 6781.35 3790.08L7369.68 3945.4L7693.51 3815.01L7224.19 1599.06L5984.69 1012.22" fill="#C27D63"/>
<path d="M7867.59 3688.35L7660.14 3867.03L7693.74 6048.64L7705.05 6047.35L7705.09 6047.35C7706.44 6039.91 7707.79 6032.44 7709.13 6024.96C7742.86 6026.28 7773.65 6026.69 7801.51 6026.18C7934.38 6023.75 8000.55 6000.45 8000.01 5956.3C8004.55 5934.68 8003.31 5912.42 7996.3 5889.52C7930.76 5712.87 7895.62 5603.37 7890.9 5561C7875.7 5477.71 7872.7 5405.11 7881.91 5343.19C7888.05 5286.26 7906.67 5212.13 7937.79 5120.81C8128.76 4670.44 8223.16 4422.92 8220.97 4378.25C8271.35 4177.38 8279.02 4006.41 8243.98 3865.34C8222.58 3761.18 8139.16 3710.42 7993.73 3713.08C7959.37 3713.71 7921.55 3717.32 7880.27 3723.91L7867.59 3688.35Z" fill="#C27D63"/>
<path d="M6286.39 6641.31L4417.92 7122.75C4487.15 7189.69 4591.27 7234.13 4730.28 7256.07C4853.64 7279.44 5130.25 7299.71 5560.11 7316.89C5470.86 7404.6 5390.85 7461.36 5320.1 7487.15C5262.3 7512.46 5152.42 7528.14 4990.47 7534.19L5235.81 8141.75L6098.63 7921.22L6416.39 7129.37L6286.64 6642.23" fill="#C27D63"/>
<path d="M3965.37 3990.73L2837.55 4016.08L3581.35 4169.1L3345.87 4385.28L3250.37 4485.92C3312.75 4540.52 3381 4580.61 3455.1 4606.21C3520.69 4631.04 3652.16 4662.95 3849.49 4701.93L3189.7 4730.76C3169.95 4807.38 3200.22 4857.76 3280.51 4881.91C3443.01 4924.02 3632.42 4929.74 3848.75 4899.07C3984.93 4879.11 4134.18 4815.18 4296.5 4707.28L4225.98 4573.79L4368.48 4515.94L4403.27 4467.41C4461.54 4385.39 4473.66 4313.8 4439.65 4252.64C4426.72 4222.57 4397.36 4177.98 4351.57 4118.86L3967.6 3991.47" fill="#C27D63"/>
<path d="M6484.69 3792.55L5598.23 3931.54C5417.35 4007.24 5305.65 4109.54 5263.11 4238.45C5223 4349.2 5208.27 4478.63 5218.93 4626.74C5230.89 4766.85 5265.86 4880.71 5323.82 4968.3C5371.82 5039.5 5442.84 5094.75 5536.89 5134.06C5616.41 5169.72 5749.77 5200.19 5936.97 5225.47C5783.11 5204.51 5680.62 5166.38 5629.49 5111.08C5572.9 5060.28 5519.34 4947.52 5468.8 4772.8C5646.06 4811.52 5780.48 4835.16 5872.05 4843.72C5964.64 4853.82 6093.08 4856.91 6257.37 4852.98C6069.04 4840.25 5931.37 4798.34 5844.36 4727.24C5778.19 4679.63 5689.83 4587.29 5579.31 4450.24C5581.32 4415.36 5587.36 4384.96 5597.42 4359.04C5620.08 4293.97 5690.65 4224.07 5809.12 4149.34C5915.56 4079.41 6140.28 3960.71 6483.28 3793.26" fill="#8D472B"/>
<path d="M5357.42 5523.5C5529.77 5618.61 5630.43 5691.58 5659.38 5742.43C5697.31 5793.69 5693.16 5869.03 5646.91 5968.47C5625.15 5990.1 5602.79 6003.31 5579.83 6008.09C5553.09 6015.47 5496.36 6014.88 5409.61 6006.31L5235.53 6065.29L5140.99 6135.07L4989.16 6212.14L4876.6 6241.84L4721.57 6216.77C4772.99 6232.29 4811.09 6242.79 4835.86 6248.26C4892.65 6261.6 4936.7 6263.71 4967.99 6254.58C4977.72 6251.9 4986.71 6248.87 4994.98 6245.48C5058.01 6216.99 5103.38 6198.5 5131.07 6190.01C5148.58 6184.14 5168.82 6178.07 5191.78 6171.8C5333.11 6135.94 5416.97 6113.46 5443.34 6104.36C5500.24 6086.7 5545.44 6068.87 5578.94 6050.87C5627.81 6025.37 5662.92 5991.47 5684.28 5949.16C5703.09 5915.55 5713.8 5859.15 5716.4 5779.96L6073.87 6119.22C6031.83 5916.47 5967.32 5781.8 5880.34 5715.21C5801.62 5643.49 5627.86 5579.71 5359.05 5523.87" fill="#8D472B"/>
<path d="M3519.5 5584.59C3339.58 5577.02 3209.93 5576.47 3130.56 5582.96C3037.05 5589.59 2964.36 5604.6 2912.48 5628.01C2859.76 5651.46 2817.57 5687.94 2785.9 5737.48C2757.51 5779.07 2730.44 5849.84 2704.71 5949.78L2951.7 5963.21C3032.82 5965.94 3092.61 5966.51 3131.09 5964.94C3216.01 5962.39 3282.52 5950.24 3330.61 5928.49C3377.66 5908.27 3415.68 5871.66 3444.67 5818.67C3470.69 5773.75 3495.63 5695.76 3519.48 5584.71" fill="#FDCCB9"/>
<path d="M6680.76 5584.37C6651.69 5554.62 6601.21 5534.17 6529.32 5523.02C6465.8 5512.13 6358.89 5507.49 6208.6 5509.12C6239.83 5602.25 6256.59 5649.16 6258.88 5649.87C6270.74 5675.79 6285.17 5696.98 6302.16 5713.43C6330.85 5742.69 6376.43 5764.59 6438.9 5779.12C6495.06 5793.62 6595.62 5807.14 6740.58 5819.69C6740.6 5752.41 6736.31 5702.93 6727.71 5671.26C6718.71 5635.32 6703.22 5606.51 6681.25 5584.85" fill="#FDCCB9"/>
<path d="M6402.87 1345.42L4693.62 706.889L2980.45 1165.36L2171.4 2226.98L2065.57 2826.01L2325.5 2543.73C2459.04 2252.34 2563.31 2060.8 2638.32 1969.1C2703.25 1882.47 2779.01 1824.99 2865.58 1796.64C2939.63 1773.07 3028.14 1765.03 3131.13 1772.51C3112.25 1907.91 3147.65 2036.63 3237.34 2158.68C3195.7 2058.62 3225.57 1912.81 3326.95 1721.24C3301.88 1863.93 3326.83 2039.71 3401.79 2248.59C3430.54 1986.72 3482.81 1819.09 3558.58 1745.69C3530.42 1838.61 3555.52 1999.31 3633.89 2227.77C3693.76 1987.32 3771.97 1836.17 3868.52 1774.32C3959.53 1703.7 4148.13 1667.34 4434.33 1665.23L4010.53 2151.12L4529.45 1742.48C4448.28 1875.64 4431.14 2046.72 4478.04 2255.73C4616.02 2065.8 4780.22 1929.26 4970.62 1846.12L4591.12 2236.97C5194.49 1935.07 5598.58 1775.93 5803.4 1759.56C6022.42 1722.06 6243.01 1801.32 6465.16 1997.35L6556.25 1658.41L6404.29 1348.33" fill="#C27D63"/>
<path d="M3373.92 1243.57L2142.54 2265.86L2146.32 2708.16C2188.72 3510.81 2242.47 4628.23 2307.55 6060.45L2690.11 6651.76C2582.29 6384.07 2511.62 6076.54 2478.09 5729.17C2430.63 5240.1 2426.63 4832.15 2466.09 4505.31C2492.75 4289.93 2549.62 4145.88 2636.68 4073.14C2710.44 4001.08 2846.21 3977.81 3044 4003.35C2819.6 3727.58 2675.68 3511.38 2612.23 3354.75C2532.37 3170.52 2504.38 2989.92 2528.25 2812.96C2552.39 2500.16 2834.13 1977.23 3373.49 1244.18" fill="#FDCCB9"/>
<path d="M2419.19 4439.44L2438.29 5103.16C2490.69 5218.83 2554.59 5297.48 2629.98 5339.12C2731.17 5401.2 2890.16 5433 3106.95 5434.51C3249.03 5436.24 3410.94 5429.14 3592.65 5413.19C3809.61 5392.62 3932.73 5374.33 3962.02 5358.3C3963.48 5354.47 3946.47 5351.89 3910.99 5350.56C3672.2 5346.72 3510.33 5341.76 3425.37 5335.69C3319.57 5329.24 3224.54 5320.06 3140.27 5308.13C2950.48 5281.48 2809.3 5239.73 2716.74 5182.87C2611.67 5120.71 2536.76 5032.78 2492 4919.06C2449.85 4821 2425.61 4661.74 2419.28 4441.28" fill="#FDCCB9"/>
<path d="M4543.97 4968.41C4415.01 5060.31 4312.48 5126.38 4236.38 5166.6C4161.44 5207.76 4047.68 5258.04 3895.09 5317.44L3010.62 5473.19C3298.11 5490.76 3508.87 5496.19 3642.92 5489.47C3798.02 5483.07 3924.37 5463.67 4021.94 5431.25C4120.45 5398.94 4209.5 5347.39 4289.09 5276.57C4360.92 5214.83 4445.82 5112.2 4543.78 4968.7" fill="#A1583C"/>
<path d="M5019.69 4389.42C4995.15 4387.52 4975.8 4386.74 4961.66 4387.09C4946.8 4387.42 4933.35 4388.84 4921.31 4391.34L5018.11 4389.45L5019.69 4389.42ZM4921.29 4391.34L4642.51 4396.79L4390.09 5114.92L4047.09 5313.44C4045.11 5314.44 4044.9 5314.71 4046.47 5314.25C4180.84 5280.53 4278.81 5248.78 4340.38 5219.01C4414.44 5184.57 4474.41 5142.9 4520.29 5093.99C4560.87 5052.23 4598.6 4993.57 4633.48 4918.01C4651.27 4885.81 4693.82 4770.85 4761.13 4573.12C4773.78 4540.14 4786.04 4513.2 4797.9 4492.31C4829.95 4434.93 4870.9 4401.31 4920.74 4391.46" fill="#FDCCB9"/>
<path d="M4695.81 5786.63C4664.64 5785.86 4637.33 5795.95 4613.86 5816.9C4591.08 5838.57 4578.83 5865.09 4577.12 5896.47C4576.4 5928.16 4586.54 5955.63 4607.55 5978.87C4629.2 6001.58 4655.72 6013.77 4687.11 6015.45C4718.28 6016.25 4745.61 6006.18 4769.1 5985.26C4791.91 5963.61 4804.18 5937.1 4805.92 5905.72C4806.67 5874.03 4796.56 5846.56 4775.58 5823.29C4753.95 5800.57 4727.45 5788.35 4696.06 5786.63" fill="#FDCCB9"/>
<path d="M8142.24 3855.35L8015.05 4031.08L7864.54 4348.5L7864.24 4350.01C7876.73 4378.66 7885.49 4400.97 7890.51 4416.96C7895.91 4433.26 7900.5 4451.11 7904.27 4470.5C7911.64 4507.78 7914.55 4552.52 7912.99 4604.72C7911.54 4653.85 7905.06 4720.05 7893.55 4803.31C7884.19 4872.54 7865.99 4984.28 7838.96 5138.54L8183.45 4516.42L8272.88 3929.74L8142.51 3855.5" fill="#A1583C"/>
<path d="M8142.21 3739.44L7806.7 3762C7774.19 3811.33 7750.98 3868.92 7737.06 3934.76C7722.71 3995.49 7705.28 4119.84 7684.77 4307.8C7718.75 4187.15 7747.17 4099.29 7770.05 4044.22C7795.48 3981.25 7822.95 3931.37 7852.47 3894.57C7881.37 3858.24 7918.24 3828.06 7963.1 3804.02C8001.62 3782.62 8061.22 3761.12 8141.89 3739.53" fill="#FDCCB9"/>
<path d="M1746.95 4103.8L1848.3 4450.13L2201.17 5209.36C2224.52 4986.04 2234.5 4822.13 2231.13 4717.65C2228.46 4598.5 2212.59 4503.71 2183.51 4433.28C2154.27 4361.58 2106.11 4300.66 2039.03 4250.51C1982.38 4205.83 1885.05 4156.93 1747.05 4103.83" fill="#C27D63"/>
<path d="M2272.86 4097.52C2271.52 4070.43 2258.26 4042.93 2233.08 4015.01C2209.45 3989.6 2179.57 3970.46 2143.44 3957.58C2114.93 3946.91 2078.85 3938.32 2035.2 3931.79C2018.3 3929.28 1999.88 3927 1979.94 3924.95L1855.8 3913.26C1838.82 3911.64 1803.02 3905.8 1748.4 3895.74C1737.33 3894.17 1729.11 3893.92 1723.75 3894.99C1712.19 3896.65 1706.77 3906.01 1707.5 3923.06C1707.54 3929.71 1708.44 3938.78 1710.19 3950.27C1721 4008.38 1726.38 4040.15 1726.31 4045.57C1728.39 4063.61 1728.57 4080.44 1726.85 4096.05C1724.57 4124.15 1712.67 4158.61 1691.16 4199.44L1751.97 4155.37C1759.83 4112.69 1768.84 4084.44 1778.99 4070.62C1790.45 4052.8 1807.08 4041.99 1828.88 4038.17C1850.35 4034.35 1878.54 4037.51 1913.46 4047.64C1921.57 4049.91 1930.42 4052.6 1939.99 4055.7L1970.55 4066.13L2084.32 4108.46L2128.06 4123.77C2158.93 4133.94 2183.73 4140.26 2202.46 4142.75C2248.85 4148.62 2272.32 4133.66 2272.86 4097.88" fill="#FDCCB9"/>
<path d="M8224.79 978.935L8118.31 1461.78C8180.66 1222 8216.15 1061.06 8224.8 978.936L8224.79 978.935ZM8117.86 1463.53C8092.54 1557.57 8041.06 1791 7963.43 2163.81L8117.87 1463.53" fill="#8D472B"/>
<path d="M7351.25 1648.05C7391.11 2126.66 7417.51 2508.47 7430.45 2793.48C7445.95 3114.19 7453.31 3440.24 7452.55 3771.62C7454.25 4335.97 7416.6 5323.81 7339.59 6735.12L7565.21 6081.25L7706.57 4050.25L7706.81 3205.7L7351.61 1649.56" fill="#FDCCB9"/>
<path d="M7808.95 5346.73C7835.25 5472.62 7852.16 5565.05 7859.68 5624.02C7868.83 5692.99 7871.52 5748.18 7867.75 5789.57C7864.26 5831.31 7853.68 5868.78 7836 5901.99C7821.2 5931.27 7793.46 5965.63 7752.76 6005.07C7832.01 6019.65 7886.49 6011.48 7916.19 5980.55C7946.9 5955.36 7979.43 5882.08 8013.75 5760.7L7809.06 5346.95" fill="#FDCCB9"/>
<path d="M4095.91 4234.01C4001.25 4175.34 3902.33 4156.83 3799.17 4178.48C3702.39 4193.18 3549.46 4257.95 3340.39 4372.8L3496.57 4412.08L4257.48 4532.73L4070.91 4277.97L4363.65 4469.15C4251.69 4350.95 4162.72 4272.74 4096.76 4234.52" fill="#8D472B"/>
<path d="M4117.74 4524.61L3392.53 4414.5L3256.29 4499.98C3339.26 4553.96 3416.63 4585.65 3488.38 4595.04C3545.55 4604.42 3621.13 4603.77 3715.13 4593.1C3798.15 4584.43 3932.03 4561.67 4116.77 4524.81" fill="#8D472B"/>
<path d="M6641.22 4454.85L6386.21 4342.79L5986.62 4455.83L5846.59 4499.82C5983.53 4525.89 6085.12 4542.79 6151.37 4550.52C6226.95 4559.8 6290.46 4562.96 6341.89 4560.01C6393.06 4557.12 6441.52 4547.59 6487.24 4531.41C6526.95 4518.1 6578.07 4492.7 6640.6 4455.22" fill="#8D472B"/>
<path d="M2218.58 4221.92L2208.37 5492.98L2335.55 6296.18L2552.93 6961.54L3672.95 8665.96L4240.21 9292.11L4740.03 9511.4L5545.07 9369.51C5806.44 9230.94 6003.51 9110.93 6136.26 9009.48C6416.58 8827.94 6744.66 8401.45 7120.49 7730L7551.75 6889.98L7702.78 6005.73L7694.86 4133.68C7661.5 5213.64 7581.15 5841.8 7453.8 6018.17C7421.75 6076.03 7387.82 6124.39 7352.01 6163.25L7082.31 6416.46C7033.7 6467.45 6990.19 6522.75 6951.79 6582.37C6846.59 6734.17 6697.95 7050.13 6505.88 7530.26C6298.84 7831.75 6140.63 8047.28 6031.23 8176.85C5760.57 8514.13 5499.66 8679.76 5248.5 8673.73C5085.98 8675.76 4909.46 8624.66 4718.93 8520.46C4515.78 8414.9 4219.64 8195.99 3830.52 7863.71L3685.63 7830.99L3489.51 7544.55C3384.24 7335.81 3290.67 7175.92 3208.8 7064.88C3173.25 7015.39 3134.04 6965.8 3091.17 6916.1L2807.53 6603.68L2685.75 6444C2440.78 6178.67 2285.3 5441.2 2219.3 4231.59" fill="#875440"/>
<path d="M5820.98 6178.41C5772.38 6179.42 5720.82 6184.97 5666.31 6195.08L5178.89 6305.66C5083.43 6324.69 4990.71 6338.54 4900.73 6347.21C4852.84 6360.29 4584.04 6362.77 4094.34 6354.63C4010.8 6356.48 3939.51 6361.41 3880.47 6369.4C3762.64 6384.5 3674.64 6416.02 3616.49 6463.96C3542.19 6526.28 3506 6628.9 3507.93 6771.81C3508.32 6823.39 3514.26 6885.07 3525.73 6956.86C3589.15 7249.44 3624.2 7431.85 3630.88 7504.1C3644.29 7599.49 3643.28 7755.09 3627.85 7970.89L4099.19 8254.95C3932.32 7817.77 3836.33 7498.9 3811.2 7298.33C3772.65 6966.33 3801.69 6762.8 3898.32 6687.76C3918.05 6678.12 3940.24 6674.27 3964.89 6676.2L4170.75 6716.31C4203.58 6720.79 4247.56 6722.41 4302.7 6721.16C4329.28 6720.46 4440.97 6709.7 4637.76 6688.87C4812.75 6692.08 4932.6 6691.48 4997.31 6687.08L5700.25 6623.34C5807.27 6617.39 5893.92 6618.68 5960.21 6627.22C6033.54 6635.7 6108.31 6656.27 6184.51 6688.95L6200.73 6934.67C6220.77 7270.19 6220.8 7515.4 6200.82 7670.3C6184.46 7823.92 6136.42 8012.85 6056.72 8237.1L6496.12 7777.69C6447.11 7195.64 6412.12 6806.82 6391.15 6611.25C6376.83 6475.61 6339.74 6384.18 6279.88 6336.96C6147.24 6228.99 5996.26 6176.11 5826.94 6178.33" fill="#875440"/>
<path d="M3777.62 6874.39L3694.1 8401.05L5061.13 9073.62L6298.23 8365.99L6206.96 6992.71C6206.86 7241.5 6180.12 7426.07 6126.73 7546.42C6067.22 7689.38 5957.05 7815.63 5796.22 7925.16C5583.65 8061.22 5423.98 8088.93 5317.23 8008.29C5258.42 7967.42 5197.42 7876.79 5134.25 7736.38L5420.11 7573.43C5250.46 7431.12 5111.79 7367.33 5004.1 7382.06C4929.49 7385.37 4810.53 7429.82 4647.22 7515.42L4902.24 7704.78C4831.77 7954.69 4731.59 8075.69 4601.7 8067.8C4497.44 8062.62 4380.28 8017.34 4250.21 7931.99C4114.35 7840.39 4008.83 7738.22 3933.64 7625.47C3822.8 7464.91 3770.79 7217.2 3777.61 6882.36" fill="#875440"/>
<path d="M6330.12 6679.71C6334.58 6685.59 6342.37 6695.83 6353.48 6710.45L6353.52 6710.42C6342.41 6695.82 6334.62 6685.58 6330.15 6679.71L6330.12 6679.71Z" fill="#5E3626"/>
<path d="M3714.94 6845.89C3710.35 6851.97 3708.06 6855.01 3708.06 6855.01H3708.06C3708.06 6855.01 3710.23 6852.15 3714.56 6846.43L3714.94 6845.89H3714.94Z" fill="#5E3626"/>
<path d="M4929.15 8596.24C4856.69 8732.49 4807.5 8815.52 4781.58 8845.33C4779.94 8847.02 4779.34 8846.83 4779.8 8844.76L4784.74 8828.45L4802.74 8777.88C4811.01 8755.86 4830.54 8710.46 4861.34 8641.68L4797.93 8737.31C4781.29 8760.76 4770.28 8774.21 4764.91 8777.65C4763.48 8777.4 4763.52 8775.76 4765.01 8772.76L4807.32 8665.82C4794.2 8683.06 4747.46 8772.14 4667.13 8933.04C4704.34 8830.57 4749.01 8734.47 4801.14 8644.76C4772.07 8679.07 4742.49 8711.57 4712.38 8742.24C4647.55 8803.64 4596.32 8853.63 4558.71 8892.2C4552.77 8897.44 4528.06 8926.33 4484.59 8978.87C4371.1 9120.45 4311.91 9249.98 4307.01 9367.45L4843.48 9512.2C4859.79 9478.78 4870.67 9434.49 4876.12 9379.31C4878.12 9355.78 4879.36 9332.08 4879.84 9308.21C4879.07 9220.07 4879.67 9149.07 4881.64 9095.21L4886.45 9001.76C4891.48 8933.48 4896.43 8878.5 4901.28 8836.81L4928.03 8651.61C4931.47 8613.72 4931.91 8595.28 4929.37 8596.27" fill="#3E2014"/>
<path d="M5332.21 8509.43C5330.49 8516.14 5329.63 8519.51 5329.63 8519.53H5329.63C5329.65 8519.51 5330.5 8516.21 5332.19 8509.64L5332.22 8509.43L5332.21 8509.43Z" fill="#3E2014"/>
<path d="M5378.63 8518.88C5377.31 8522.99 5376.03 8527.07 5374.78 8531.13L5378.65 8518.88H5378.63Z" fill="#3E2014"/>
<path d="M5479.95 8478.13C5478.93 8479.19 5475.1 8497.47 5468.45 8532.97C5473.99 8509.52 5477.81 8491.76 5479.91 8479.71L5479.97 8478.13H5479.95Z" fill="#3E2014"/>
<path d="M5418.48 8488.55C5391.34 8575.54 5365.81 8644.62 5341.88 8695.81C5344.86 8647.82 5355.66 8593.48 5374.26 8532.8L5374.25 8532.8L5315.22 8719.67C5304.67 8751.03 5296.99 8769.97 5292.2 8776.5C5291.83 8776.69 5291.52 8776.78 5291.27 8776.79C5290.47 8776.8 5290.25 8775.91 5290.6 8774.12L5293.39 8733.29C5295.12 8711.2 5297.62 8689.32 5300.88 8667.65C5304.95 8635.95 5314.39 8587.11 5329.21 8521.15H5329.2C5300.63 8621.66 5268.65 8702.49 5233.25 8763.63C5232.97 8764.29 5232.72 8764.62 5232.51 8764.63C5232.14 8764.63 5231.89 8763.62 5231.75 8761.59L5234.83 8721.01L5245.25 8659.04C5249.94 8630.9 5260.81 8587.14 5277.86 8527.75H5277.84C5237.44 8646.38 5206.54 8722.55 5185.15 8756.26C5179.51 8766.13 5176.1 8771.07 5174.93 8771.1C5174.67 8771.1 5174.52 8770.86 5174.48 8770.37C5175.85 8755.09 5178.42 8736.88 5182.18 8715.74C5191 8667.6 5202.58 8619.21 5216.93 8570.58H5216.91C5210.22 8589.65 5187.77 8647.87 5149.56 8745.23C5141.03 8766.56 5135.37 8778.34 5132.57 8780.57C5149.21 8706.48 5175.21 8624.71 5210.6 8535.24H5210.58C5184.5 8598.68 5158.04 8666.11 5131.22 8737.52C5113.67 8779.86 5104.06 8801.34 5102.39 8801.96C5107.29 8769.32 5112.14 8741.96 5116.93 8719.88C5120.66 8699.74 5135.95 8639.43 5162.81 8538.96C5166.94 8520.07 5168.41 8510.61 5167.24 8510.6H5167.23C5166.91 8510.62 5166.4 8511.3 5165.7 8512.66C5134.1 8585.4 5098.09 8660.31 5057.66 8737.39C5044.57 8764.43 5021.18 8805.84 4987.49 8861.61L4964.87 8905C4943.24 8950.02 4926.39 8993 4914.31 9033.93C4898.08 9081.95 4885.08 9162.51 4875.3 9275.61C4865.7 9372.37 4863.46 9453.85 4868.59 9520.07L5464.6 9434.51C5469.69 9398.42 5471.82 9360.54 5471.01 9320.86C5460.56 9172.95 5454.46 8980.47 5452.71 8743.43C5453.25 8657.12 5458.41 8587.5 5468.17 8534.57L5468.15 8534.57C5443.19 8647.93 5420.27 8722.43 5399.37 8758.08C5397.91 8737.78 5398.42 8707.97 5400.89 8668.66L5418.72 8489.34L5418.48 8488.55Z" fill="#3E2014"/>
<path d="M5013.76 8565.44C5011.01 8570.17 5006.76 8581.96 5001 8600.81C5006.79 8586.2 5011.03 8574.58 5013.69 8565.95L5013.76 8565.44ZM5000.93 8600.98C4988.69 8630.97 4975.22 8657.42 4960.53 8680.3C4954.84 8689.38 4947.78 8699.36 4939.36 8710.26C4916.14 8738 4902.55 8754.89 4898.59 8760.93C4888.92 8774.34 4880.49 8787.95 4873.3 8801.76C4858.32 8832.04 4848.54 8854.55 4843.98 8869.29C4834.06 8898.52 4827.22 8925.8 4823.45 8951.14C4819.54 8975.13 4816.85 9013.2 4815.35 9065.35C4815.35 9106.06 4818.12 9143.86 4823.66 9178.75C4834.07 9244.07 4854.26 9292.94 4884.24 9325.36L4935.76 9014.82C4933.85 9006.03 4935.58 8972.39 4940.95 8913.9C4943.75 8884.8 4949.03 8845.67 4956.79 8796.52C4963.07 8751.49 4977.71 8686.55 5000.72 8601.69" fill="#3E2014"/>
<path d="M5772.84 8259.23C5773.05 8263.42 5773.16 8265.68 5773.19 8266.01L5773.19 8266.01C5773.19 8265.72 5773.12 8263.99 5772.98 8260.83L5772.86 8259.23L5772.84 8259.23Z" fill="#3E2014"/>
<path d="M5773.36 8270.75C5773.49 8274.3 5773.62 8277.84 5773.76 8281.37C5773.65 8277.85 5773.52 8274.31 5773.38 8270.75H5773.36Z" fill="#3E2014"/>
<path d="M5801.37 8241.15C5803.86 8307.79 5805.25 8345.02 5805.55 8352.83H5805.56C5805.28 8345.06 5803.92 8308.22 5801.48 8242.3L5801.39 8241.15H5801.37Z" fill="#3E2014"/>
<path d="M5839.78 8125.85L5845.34 8480.43C5845.37 8538.08 5843.9 8580.2 5840.92 8606.79C5825.25 8540.01 5813.52 8456.54 5805.75 8356.38L5805.73 8356.38C5806.73 8398.69 5806.81 8437.08 5805.96 8471.55L5803.76 8534.08C5803.37 8541.66 5802.76 8545.46 5801.93 8545.48C5801.75 8545.48 5801.55 8545.29 5801.34 8544.91C5786.89 8464.04 5777.73 8376.93 5773.86 8283.6L5773.84 8283.6C5775.47 8334.43 5774.73 8382.22 5771.6 8426.98C5763.09 8526 5755.7 8579.69 5749.42 8588.03C5748.95 8588.74 5748.5 8589.09 5748.04 8589.1C5746.27 8589.13 5744.61 8583.77 5743.07 8573.02L5715.36 8400.19C5711.27 8375.7 5708.74 8363.47 5707.76 8363.48C5707.64 8363.49 5707.54 8363.67 5707.47 8364.03C5716 8504.08 5712.96 8622.9 5698.35 8720.5C5682.67 8649.1 5671.19 8583.3 5663.89 8523.11C5658.73 8487.59 5653.98 8431.79 5649.64 8355.68C5650.52 8421 5633.8 8515.24 5599.49 8638.42C5585.78 8694.58 5541.58 8820.49 5466.9 9016.13C5453.25 9058.92 5444.1 9090.51 5439.44 9110.9C5428.23 9163.11 5429.4 9209.9 5442.96 9251.26C5463 9312.73 5487.31 9365.89 5515.91 9410.73C5521.76 9405.74 5528.24 9400.51 5535.35 9395.05C5575.75 9363.23 5628.34 9341.63 5693.14 9330.25L5693.14 9330.27L5698.12 9347.85L6111.07 9045.7L6082.12 8961.23L5993.5 8721.05C5982.23 8689.11 5967.69 8643.64 5949.87 8584.65C5936.01 8537.62 5921.48 8482.85 5906.27 8420.36L5857.13 8195.32C5847.29 8151.4 5841.73 8128.4 5840.44 8126.33L5839.78 8125.85Z" fill="#3E2014"/>
<path d="M6361.1 7668.96C6375.51 7774.61 6384.12 7857.39 6386.91 7917.3C6394.39 8043.98 6394.12 8108.14 6386.12 8109.79C6377.5 8106.42 6363.48 8042.26 6344.05 7917.32C6338.71 7893.71 6332.85 7823.69 6326.46 7707.28L6321.6 8109.05C6321.14 8136.43 6320.42 8150.13 6319.43 8150.15C6319.43 8150.15 6319.42 8150.15 6319.42 8150.15C6301.64 8084.37 6284.74 7985.74 6268.72 7854.27H6268.7C6274.68 7936.59 6278.29 8015.27 6279.52 8090.31C6279.9 8135.57 6279.56 8164.52 6278.49 8177.16C6277.77 8181.84 6276.93 8184.19 6275.95 8184.21C6274.88 8184.23 6273.66 8181.48 6272.29 8175.96C6250.73 8095.96 6230.84 7969.55 6212.63 7796.73C6206.57 8024.02 6199.39 8161.6 6191.09 8209.49C6162.68 8093.31 6149.61 7956.33 6151.88 7798.54L6151.86 7798.54C6147.78 7869.45 6130.92 7954.12 6101.28 8052.57C6088.65 8090.01 6073.42 8129.41 6055.59 8170.77C5999.81 8276.88 5967 8343.34 5957.18 8370.17C5942.49 8411.42 5934.08 8450.5 5931.95 8487.4C5923.23 8591.16 5944.39 8719.56 5995.41 8872.59C6018.42 8942.73 6043.22 9010.5 6069.79 9075.9L6111.07 9045.7L6106.33 9031.88L6106.31 9031.88C6116.63 9024.31 6126.62 9016.84 6136.26 9009.48C6292.95 8908 6464.57 8729.99 6651.11 8475.44L6651.13 8475.44C6631.4 8433.03 6613.61 8393.2 6597.76 8355.95C6531.98 8203.05 6453.4 7974.54 6362.01 7670.41L6361.13 7668.96L6361.1 7668.96Z" fill="#3E2014"/>
<path d="M6154.6 7736.84C6152.87 7776.2 6152.01 7795.95 6152.01 7796.1H6152.01C6152.03 7795.95 6152.9 7776.43 6154.62 7737.53L6154.6 7736.84Z" fill="#5B2F1E"/>
<path d="M3931.37 7999.44C3929.87 8001.37 3929.13 8002.33 3929.13 8002.34H3929.13C3929.13 8002.33 3929.65 8001.67 3930.69 8000.35L3931.37 7999.44H3931.37Z" fill="#5B2F1E"/>
<path d="M4411.16 8135.69C4312.92 8262.7 4217.08 8359.53 4123.64 8426.19C4123.61 8426.19 4123.59 8426.19 4123.56 8426.19C4119.29 8426.27 4133.32 8400.93 4165.64 8350.17L4245.98 8241.62L4245.98 8241.62C4208.51 8283.18 4177.16 8316.45 4151.93 8341.41C4133.73 8359.56 4113.05 8377.49 4089.91 8395.2C4085.93 8398.21 4083.35 8399.73 4082.19 8399.75C4081.11 8399.77 4081.25 8398.51 4082.59 8395.95L4115.98 8346.27C4140.25 8311.58 4169.21 8274.51 4202.88 8235.05H4202.88C4155.3 8289.31 4107.23 8335.96 4058.68 8375.02C4075.39 8348.27 4126.07 8284.31 4210.72 8183.14H4210.72C4137.9 8252.64 4084.31 8299.38 4049.93 8323.38C4087.34 8268.27 4132.06 8216.6 4184.08 8168.37L4184.08 8168.37C4099.28 8241.26 3987.47 8328.92 3848.65 8431.34C3832.5 8443.82 3815.09 8460.08 3796.42 8480.12C3761.42 8507.87 3724.01 8573.97 3684.21 8678.39L3684.21 8678.39L3744.04 8744.43H3744.04L4240.22 9292.12L4311.32 9323.31H4311.32C4309.05 9338.21 4307.61 9352.92 4307.01 9367.45L4319.7 9370.88H4319.7C4342.22 9322.59 4363.49 9275.48 4383.51 9229.54C4509.5 8926.01 4573.55 8774.22 4575.67 8774.19C4575.69 8774.19 4575.71 8774.2 4575.72 8774.22C4607.93 8704.69 4647.52 8630.74 4694.49 8552.36H4694.48C4577.88 8714.04 4506.51 8798.77 4480.35 8806.56C4502.55 8738.99 4576.82 8613.28 4703.18 8429.42H4703.17C4571.93 8603.7 4497.39 8693.02 4479.53 8697.38C4483.27 8687.15 4502.34 8653.38 4536.74 8596.05H4536.73L4475.47 8675.56L4646.54 8367.79H4646.53C4547.72 8490.08 4472.21 8599.59 4419.99 8696.33C4436.66 8664.73 4452.39 8631.58 4467.18 8596.88C4535.28 8422.8 4573.44 8328.05 4581.67 8312.63C4595.46 8280.92 4611.34 8248.89 4629.32 8216.55L4629.32 8216.55C4496.71 8395.16 4408.02 8504.33 4363.26 8544.07C4394.23 8483.12 4437.19 8413.34 4492.15 8334.73H4492.14C4379.49 8477.15 4319.01 8548.44 4310.7 8548.59C4310.5 8548.6 4310.33 8548.56 4310.2 8548.49C4329.72 8499.28 4366.12 8430.6 4419.41 8342.43H4419.4C4352.93 8433.73 4293.39 8505.88 4240.79 8558.88C4283.45 8480.15 4324.7 8412.64 4364.56 8356.34H4364.56L4165.02 8635.61L4275.97 8384.22C4322.74 8288.89 4367.79 8206.09 4411.12 8135.83L4411.17 8135.69L4411.16 8135.69Z" fill="#3E2014"/>
<path d="M4646.65 8441.46C4619.62 8471.97 4583.47 8522.85 4538.2 8594.09C4582.41 8534.25 4618.58 8483.41 4646.71 8441.56L4646.65 8441.46Z" fill="#5B2F1E"/>
<path d="M4740.34 8479.21C4711.91 8524.6 4697.03 8548.38 4695.69 8550.56H4695.69C4697.07 8548.39 4711.81 8524.93 4739.89 8480.16L4740.35 8479.21H4740.34Z" fill="#5B2F1E"/>
<path d="M4370.01 8348.72C4368.36 8351.01 4366.7 8353.32 4365.05 8355.66L4370.01 8348.72H4370.01Z" fill="#5B2F1E"/>
<path d="M4392.88 8318C4378.43 8337.37 4371.21 8347.07 4371.21 8347.08H4371.21C4371.23 8347.07 4378.3 8337.61 4392.41 8318.7L4392.88 8318H4392.88Z" fill="#5B2F1E"/>
<path d="M4212.36 8223.78C4206.83 8230.35 4204.06 8233.63 4204.06 8233.64H4204.06C4204.08 8233.63 4206.45 8230.84 4211.17 8225.25L4212.37 8223.78H4212.36Z" fill="#5B2F1E"/>
<path d="M4675.93 8143.66C4666.08 8153.96 4650.7 8177.97 4629.79 8215.7C4647.22 8191.28 4662.61 8167.27 4675.95 8143.67L4675.93 8143.66Z" fill="#5B2F1E"/>
<path d="M4212.22 8142.53C4193.98 8159.25 4184.86 8167.61 4184.86 8167.63H4184.86C4184.89 8167.61 4193.95 8159.34 4212.02 8142.8L4212.22 8142.53H4212.22Z" fill="#5B2F1E"/>
<path d="M3960 8046.93C3921.89 8065.42 3921.74 8065.51 3959.54 8047.18L3960 8046.93ZM4022.7 8215.7C4003.71 8224.6 3980.12 8239.1 3951.92 8259.2C3979.64 8242.61 4002.9 8228.35 4021.71 8216.41L4022.7 8215.7ZM3977.25 7943.91C3944.46 7958.21 3904.75 7970.42 3858.14 7980.54L3771.31 7995.32L3633.92 8009.72C3613.64 8012.52 3586.29 8021.13 3551.87 8035.56C3505 8057.65 3457.02 8090.69 3407.92 8134.67C3372.13 8166.21 3346.38 8200.72 3330.67 8238.19L3690.74 8706.48C3762.31 8588.09 3809.93 8515.39 3833.61 8488.4C3949.44 8353.36 4029.6 8263.96 4074.08 8220.19C3959.83 8300.17 3878.54 8348.17 3830.19 8364.17C3827.36 8363.17 3841.56 8348.8 3872.81 8321.04C3899.45 8298.18 3925.4 8277.85 3950.63 8260.04C3878.4 8304.39 3837.88 8327.5 3829.07 8329.35C3894.89 8274.3 3942.02 8233.34 3970.46 8206.47C3901.15 8252.02 3848.91 8291.19 3813.74 8323.99C3834.8 8302.91 3870.02 8263.24 3919.41 8204.98C4002.5 8100.75 4058.46 8031.93 4087.29 7998.52C4012.34 8057.58 3913.84 8108.97 3791.79 8152.7C3782.7 8155.37 3778.52 8155.48 3779.24 8153.03C3789.81 8144.67 3803.15 8135.18 3819.24 8124.55C3854.41 8101.54 3891.4 8080.48 3930.22 8061.39C3833.13 8104.35 3778.13 8121.8 3765.21 8113.74C3776.8 8097.56 3819.53 8063.87 3893.43 8012.68C3824.58 8049.35 3761.71 8080.88 3704.83 8107.27C3785.32 8047.99 3876.12 7993.55 3977.25 7943.94" fill="#3E2014"/>
<path d="M3339.23 7671.81C3243.05 7602.42 3145.64 7522.68 3047 7432.59C3039.66 7425.12 3037.19 7422.18 3039.6 7423.78C3055.62 7434.15 3071.36 7444.95 3086.84 7456.17C3123.57 7484.3 3154.1 7508.76 3178.43 7529.56C3068.53 7427.15 2996.17 7362.79 2961.38 7336.47C3114.41 7428.78 3189.41 7472.44 3186.36 7467.44L3035.87 7354.82C3019.22 7342.28 2992.9 7319.46 2956.94 7286.35C2916.69 7249.57 2853.9 7183.34 2768.56 7087.66C2721.75 7042.35 2673.19 6992.47 2622.89 6938L2565.86 6882.41L2771.83 7361.56L2935.09 7461.92C3038.42 7521.41 3117.08 7566.06 3171.07 7595.85C3238.45 7633.6 3294.5 7658.94 3339.2 7671.87" fill="#3E2014"/>
<path d="M3439.23 7864.8C3400.98 7850.73 3400.97 7850.74 3439.22 7864.81L3439.23 7864.8ZM3758.89 7962.27C3736.77 7961.69 3711.97 7959.08 3684.47 7954.45L3449.47 7913.32C3444.9 7911.61 3432.21 7904.69 3411.39 7892.56C3360.14 7860.6 3333.49 7841.57 3331.47 7835.46C3338.08 7833.05 3363.9 7839.09 3408.91 7853.61C3306.96 7810.87 3254.8 7787.73 3252.44 7784.16C3276.61 7788.9 3309.4 7796.54 3350.82 7807.07C3451.95 7836.12 3503.58 7849.91 3505.71 7848.43C3492.18 7838.8 3430.16 7809.49 3319.66 7760.5C3293.58 7747.21 3267.39 7730.88 3241.07 7711.51C3211.16 7689.58 3187.71 7669.3 3170.73 7650.67C3162.5 7643.03 3135.72 7610.04 3090.38 7551.69C3085.02 7545.06 3077.74 7537.21 3068.57 7528.14C3050 7510.18 3028.62 7493.22 3004.43 7477.25C2955.74 7449.05 2891.63 7424.49 2812.11 7403.57L3353.36 8225.37C3372.76 8223.93 3393.26 8217.33 3414.86 8205.56L3503.8 8148.44L3662.69 8063.28C3698.41 8040.05 3718.15 8024.1 3721.91 8015.42C3721.39 8012.77 3720.56 8011.57 3719.42 8011.8L3685.18 8008.11C3670.52 8006.18 3631.54 8003.95 3568.24 8001.43C3549.53 7999.89 3534.2 7998.02 3522.26 7995.82C3502.64 7991.62 3492.03 7987.88 3490.44 7984.59L3577.87 7977.26L3432.49 7960.09C3525.79 7969.71 3634.18 7970.52 3757.67 7962.52" fill="#3E2014"/>
<path d="M6573.87 7827.21L6788.71 7826.91C6882.02 7823.87 6943.83 7819.56 6974.13 7813.98C7048.52 7804.07 7118.26 7778.42 7183.32 7737.01L7402.49 7160.51C7351.24 7200.06 7305.82 7237.77 7266.21 7273.65C7245.49 7293.33 7230.55 7308.02 7221.39 7317.72C7170.13 7377.04 7137.71 7412.67 7124.13 7424.61C7101.99 7446.17 7077.47 7466.82 7050.57 7486.58C6924 7578.31 6806.12 7643.76 6696.95 7682.91C6803.99 7658.08 6880.42 7649.57 6926.23 7657.38C6898.85 7675.43 6838.12 7694.8 6744.06 7715.48C6800.43 7709.7 6867.32 7699.83 6944.73 7685.85C6895.23 7702.64 6824.47 7725.43 6732.44 7754.23C6854.09 7735.27 6942.29 7724.19 6997.04 7720.97C6893.89 7753.66 6841.72 7769.42 6840.54 7768.26C6823.71 7773.32 6759.95 7786.22 6649.25 7806.95C6626.59 7812.02 6601.49 7818.75 6573.94 7827.14" fill="#3E2014"/>
<path d="M6949.08 7263.14C6961.95 7256.61 6961.95 7256.61 6949.07 7263.14L6949.08 7263.14ZM7039.82 7270.36C7099.3 7243.18 7099.42 7243.12 7040.18 7270.18L7039.82 7270.36ZM6901.56 7499.14C7003.54 7487.33 7096.52 7461.38 7180.51 7421.27C7275.18 7375.56 7333.45 7326.68 7355.32 7274.61L7651.2 6553.93C7629.36 6575.86 7611.26 6597.2 7596.87 6617.95L7396.62 6909.41C7379.29 6933.12 7353.54 6962.49 7319.37 6997.52C7263.41 7054.2 7214.59 7097.79 7172.92 7128.29C7094.21 7182.88 7022.97 7226.12 6959.19 7258.01C7161.24 7162.84 7270.75 7115.82 7287.74 7116.97C7239.59 7166.63 7172.66 7210.56 7086.96 7248.76C7162.65 7213.95 7216.45 7190.65 7248.39 7178.85C7269.5 7168.95 7269.4 7171.33 7248.09 7185.98C7198.43 7226.57 7129.74 7266.66 7042 7306.26C7191.95 7237.4 7270.65 7203.4 7278.1 7204.25C7259.54 7222.81 7233.41 7243.77 7199.73 7267.15L7019.82 7378.54C7022.36 7378.9 7049.94 7368.67 7102.58 7347.87L7205.01 7302.05C7210.67 7299.46 7212.7 7299.13 7211.1 7301.04C7166.78 7334.79 7126.85 7362.77 7091.32 7384.97C7070.04 7399.39 7015.56 7430.98 6927.88 7479.75C6911.99 7489.26 6903.45 7495.26 6902.28 7497.74" fill="#3E2014"/>
<path d="M6521.41 7913.63C6535.07 7961.47 6542.34 8005.05 6543.24 8044.36C6543.79 8067.62 6543.2 8087.57 6541.49 8104.22C6531.85 8172.24 6527.34 8208.24 6527.96 8212.22C6526.86 8232.11 6527.6 8250.3 6530.17 8266.79C6542.06 8322.52 6563.87 8366.07 6595.59 8397.45C6638.37 8443.1 6684 8474.34 6732.48 8491.2L6930.04 8136.18C6896.53 8120.08 6855.38 8092.93 6806.6 8054.76C6776.57 8032.33 6719.92 7983.96 6636.64 7909.64C6618.13 7894.25 6605.86 7884.76 6599.83 7881.18C6633.75 7932.21 6660.05 7983.38 6678.75 8034.69C6680.6 8040.17 6679.03 8039.16 6674.03 8031.66C6667 8022.41 6656.77 8007.67 6643.33 7987.45C6627.82 7964.5 6610.03 7935.85 6589.97 7901.5C6624.04 7973.77 6644.57 8026.67 6651.57 8060.2C6640.36 8049.57 6605.43 7995.99 6546.77 7899.46L6613.66 8045.72C6635.29 8098.58 6645.11 8124.47 6643.13 8123.4C6603.42 8068.56 6562.9 7998.69 6521.57 7913.81" fill="#3E2014"/>
<path d="M6513.61 8284.86C6511.47 8316.01 6513.17 8340.31 6518.72 8357.74C6521.46 8370.95 6532.58 8392.22 6552.09 8421.55C6570 8445.76 6590.13 8464.43 6612.49 8477.54C6627.37 8487.75 6647.51 8493.03 6672.91 8493.39C6682.6 8493.7 6689.65 8493.47 6694.06 8492.72C6695.33 8493.06 6699.6 8491.33 6706.88 8487.52C6718.03 8481.29 6730.36 8470.01 6743.85 8453.68C6778.79 8408.66 6809.22 8355.92 6835.14 8295.46L6514.13 8284.87" fill="#3E2014"/>
<path d="M6606.31 7831.73C6646.24 7840.71 6646.3 7840.71 6606.49 7831.74L6606.31 7831.73ZM6637.04 7838.59C6706.39 7858.06 6750.26 7872.98 6768.63 7883.35C6769.37 7884.18 6768.28 7884.26 6765.35 7883.59L6737.43 7878.18C6732.01 7877.03 6713.4 7872.03 6681.58 7863.2C6703.21 7872.27 6721.85 7881.3 6737.49 7890.31C6753.38 7899.64 6763.56 7905.98 6768.02 7909.32C6772.41 7912.13 6772.92 7913.83 6769.54 7914.41C6762.25 7914.09 6746.75 7911.08 6723.03 7905.37L6660.55 7888.12C6753.81 7929.42 6803.79 7952.42 6810.5 7957.13C6797.55 7955.15 6776.75 7949.87 6748.1 7941.3C6722.61 7932.54 6690.91 7920.24 6653.01 7904.4C6648.94 7902.78 6647.03 7902.26 6647.28 7902.83C6675.18 7928.59 6696.52 7950 6711.31 7967.04C6716.08 7972.38 6720.92 7978.3 6725.83 7984.82L6767.7 8042.41C6775.03 8051.99 6784.23 8061.61 6795.32 8071.27C6816.39 8091.09 6842.51 8103.35 6873.69 8108.04C6902.75 8111.08 6924.16 8104.54 6937.91 8088.42C6940.11 8084.49 6941.43 8081.09 6941.88 8078.2L7128.49 7739.59C7122.71 7740.7 7108.61 7744.87 7086.18 7752.09L6904.77 7813.22C6882.99 7820.26 6854.92 7827.14 6820.55 7833.86C6764.79 7845.97 6703.73 7847.56 6637.36 7838.64" fill="#3E2014"/>
<path d="M2904.39 7002.26C2780.57 6862.05 2664.08 6698.2 2554.92 6510.7C2580.77 6542.07 2598.48 6557.11 2608.03 6555.8C2595.67 6535.8 2558.01 6463.59 2495.07 6339.19C2523.64 6384.59 2543.61 6414.16 2554.97 6427.88C2502.83 6312.3 2446.81 6167.43 2386.9 5993.29C2380.84 5982.87 2363.68 5915.04 2335.4 5789.79L2300.11 5665C2298.47 5653.09 2273.91 5583.33 2226.45 5455.71C2221.4 5441.42 2215.64 5419.92 2209.17 5391.22L2336.83 6412.97C2338.38 6418.92 2341.45 6427.41 2346.03 6438.43C2350.29 6454.97 2378.7 6498.74 2431.28 6569.76C2450.59 6596.1 2475.32 6624.51 2505.46 6654.99C2701.06 6853.26 2833.73 6969.08 2903.46 7002.43L2904.39 7002.26ZM2209.03 5390.09L2190.13 5239.01C2194.45 5297.47 2200.66 5347.42 2208.77 5388.84" fill="#3E2014"/>
<path d="M3092.46 7332.16C2935.35 7183.52 2832.63 7083.45 2784.32 7031.96C2804.54 7051.43 2824.77 7069.76 2845.01 7086.97L2880.41 7115.7C2887.09 7120.47 2889.31 7121.47 2887.09 7118.69L2775.02 6973.48C2650.86 6824.45 2589.8 6749.46 2591.84 6748.5C2559.23 6705.12 2522.78 6643.43 2482.48 6563.42L2449.78 6627C2458.55 6658.35 2464.48 6683.23 2467.56 6701.64L2488.24 6841.17C2493.5 6864.33 2505.94 6889.1 2525.58 6915.47C2559.29 6954.54 2620.88 7007.36 2710.34 7073.92C2805.75 7143.96 2898.17 7208.56 2987.59 7267.7C3043.45 7305.23 3078.07 7326.68 3091.46 7332.05" fill="#3E2014"/>
<path d="M7429.79 6524.94C7387.52 6579.55 7363.05 6613.24 7356.38 6626.03C7355.02 6628.22 7356.71 6626.1 7361.47 6619.69L7404.89 6561.4L7429.69 6525.11L7429.79 6524.94ZM7684.18 6018.68C7667.09 6042.82 7651.42 6068.96 7637.16 6097.12C7638.58 6091.23 7599.89 6176.94 7521.1 6354.26C7480.79 6437.08 7450.4 6493.92 7429.92 6524.76C7461.22 6485.03 7505.57 6432.07 7562.99 6365.87C7504.77 6445.6 7454.11 6525.5 7411.01 6605.56C7454.95 6549.3 7480.13 6518.12 7486.54 6512.02L7570.39 6427.97C7571.63 6427.31 7571.51 6428.25 7570.01 6430.79C7560.96 6448.23 7544.7 6474.42 7521.21 6509.35L7430.53 6636.07L7337.3 6775.74L7191.43 6985.08L7386.88 6834.92C7388.93 6834.06 7441.09 6788.82 7543.34 6699.2C7586.96 6660.3 7618.25 6622.4 7637.22 6585.5L7641.48 6575.51L7684.05 6020.32" fill="#3E2014"/>
<path d="M7555.67 6615.25L7445.6 6787.65C7434.23 6805.37 7421.75 6823.38 7408.16 6841.68C7362.11 6902.2 7311.43 6959.97 7256.11 7014.99C7259.94 7012.72 7292.92 6983.31 7355.06 6926.76L7428.85 6862.74C7439.59 6853.32 7452.06 6841.5 7466.27 6827.29C7501.68 6794.08 7545.14 6743.14 7596.64 6674.46L7555.74 6615.35" fill="#3E2014"/>
<path d="M4961.69 7799.47C4963.59 7788.58 4964.03 7774.7 4963.02 7757.82C4960.99 7773.41 4960.52 7787.19 4961.6 7799.15L4961.69 7799.47ZM5003.36 7765.19C5009.87 7757.79 5016.45 7748.88 5023.07 7738.48C5015.13 7747.32 5008.56 7756.18 5003.37 7765.08L5003.36 7765.19ZM4963 7757.6C4966.88 7728.5 4974.77 7702.12 4986.67 7678.46C4999.58 7651.48 5012.46 7633.11 5025.3 7623.33C5026.55 7622.77 5027 7622.9 5026.63 7623.72L5019.28 7652.48L4995.11 7731.27C5027.22 7681.09 5049.67 7653 5062.43 7647C5052.29 7681.26 5039.23 7711.67 5023.27 7738.24C5034.9 7725.23 5046.59 7715.38 5058.33 7708.71C5066.83 7703.78 5074.98 7699.86 5082.78 7696.97C5117.51 7685.43 5135.2 7679 5135.84 7677.68C5148.69 7671.35 5160.25 7663.28 5170.5 7653.48C5204.62 7617.83 5220.96 7569.33 5219.52 7508C5218.51 7498.12 5216.3 7489.74 5212.9 7482.87L5168.53 7567.12C5178.37 7492.31 5148.91 7443.14 5080.15 7419.61C5099.76 7447.2 5112.44 7473.87 5118.19 7499.61C5124.96 7526.15 5125.04 7549.61 5118.46 7569.99C5116.1 7533.91 5107.29 7507.56 5092.05 7490.93C5087.25 7485.04 5081.41 7479.71 5074.54 7474.96L5028.95 7447.49L4985.97 7416.81C4985.35 7416.9 4985.2 7417.28 4985.5 7417.95L4987.71 7427.51C4996.79 7455.19 5002.24 7474.15 5004.06 7484.38C5007.65 7501.66 5009.47 7516.26 5009.51 7528.17C5009.49 7535.72 5008.77 7538.34 5007.37 7536.04L4990.2 7474.52C4983.19 7453.7 4977.6 7440.84 4973.43 7435.92C4978.63 7452.85 4982.9 7481.84 4986.25 7522.91C4988.43 7548.12 4988.38 7570.22 4986.1 7589.23C4981.99 7570.17 4974.71 7552.93 4964.26 7537.52C4957.49 7528.48 4952 7522.02 4947.8 7518.12C4948.43 7517.75 4938.69 7510.07 4918.57 7495.08C4914.28 7491.54 4910.15 7487.52 4906.18 7483.01C4902.55 7478.79 4899.32 7474.51 4896.48 7470.15C4893.59 7465.72 4888.26 7456.11 4880.47 7441.33C4879.33 7439.68 4878.7 7439.13 4878.59 7439.7C4867.79 7474.5 4865.72 7502.91 4872.39 7524.92C4875.75 7536.7 4880.41 7548.11 4886.37 7559.14L4927.09 7626.82C4935.26 7641.42 4941.01 7653.26 4944.33 7662.35C4955.51 7692.21 4961.73 7723.88 4962.98 7757.35" fill="#3E2014"/>
<path d="M5565.25 9175.81C5519.54 9190.16 5481.73 9211.19 5451.83 9238.89C5437.44 9252.42 5427.41 9264.31 5421.75 9274.55C5408.86 9296.17 5401.9 9313.23 5400.87 9325.73C5398.62 9342.44 5401.3 9356.52 5408.91 9367.96C5413.19 9373.66 5417.36 9377.6 5421.43 9379.78C5427.4 9382.69 5434.88 9384.9 5443.89 9386.43C5457.63 9386.69 5469.84 9383.69 5480.53 9377.44C5499.82 9367.43 5516.82 9355.47 5531.53 9341.56L5565.23 9175.95" fill="#3E2014" fill-opacity="0.913725"/>
<path d="M3904.77 4279.29L3678.12 4264.75L3494.02 4337.54L3300.34 4448.54C3332.59 4474.45 3360.22 4494.23 3383.24 4507.88C3452.96 4551.58 3544.7 4573.74 3658.46 4574.35C3723.27 4575.49 3807.47 4571.35 3911.03 4561.93C3969.79 4556.71 4056.15 4547.54 4170.11 4534.41L4239.45 4521.86C4209.58 4491.7 4150.65 4442.35 4062.66 4373.81L3904.99 4279.42" fill="#DCDCDC"/>
<path d="M6088.78 4249.2L5787.2 4311.97L5573.67 4443.45L5567.64 4452.32L5654.93 4464.12L5759.87 4487.17C5883.45 4505.06 5974.11 4515.9 6031.86 4519.68C6098.29 4524.58 6154.73 4524.4 6201.16 4519.15C6286.31 4511.19 6372.3 4473.96 6459.14 4407.47L6475.5 4395.34L6221.26 4268.54L6090.02 4249.38" fill="#DCDCDC"/>
<path d="M3678.12 4264.75L3494.02 4337.54L3399 4392C3563.29 4378.61 3689.11 4371.12 3776.46 4369.52C3825.4 4368.63 3862.26 4369.58 3887.05 4372.39C3967.14 4377.95 4010.22 4403.53 4016.28 4449.12C4022.35 4467.71 4015.19 4499.02 3994.8 4543.07C3992.58 4546.98 3990.12 4550.8 3987.41 4554.53C4037.33 4549.4 4098.23 4542.69 4170.11 4534.41L4239.45 4521.86C4209.58 4491.7 4150.65 4442.35 4062.66 4373.81L3904.99 4279.42L3904.77 4279.29L3678.12 4264.75Z" fill="#A0A0A0"/>
<path d="M6088.78 4249.2L5787.2 4311.97L5573.67 4443.45L5567.64 4452.32L5654.93 4464.12L5757.52 4486.65C5755.18 4471.95 5754.56 4459.38 5755.67 4448.97C5758.3 4412.53 5776.76 4385.35 5811.05 4367.44C5856.33 4339.96 5966.34 4318.42 6141.1 4302.82C6260.22 4349.94 6313.57 4392.66 6301.14 4430.96C6299.76 4450.6 6278.05 4478.37 6236.01 4514.27C6309.76 4500.5 6384.13 4464.9 6459.14 4407.47L6475.5 4395.34L6221.26 4268.54L6090.02 4249.38L6088.78 4249.2Z" fill="#A0A0A0"/>
<path d="M6088.78 4249.2L5823.94 4304.32L5823.96 4304.32C5832.73 4359.32 5857.36 4406.98 5897.83 4447.3C5949.56 4496.12 6010.48 4520.42 6080.57 4520.21C6150.93 4518.2 6210.93 4492.47 6260.57 4443C6294.61 4407.15 6316.76 4366.58 6327 4321.29L6327.02 4321.29L6221.26 4268.54L6090.02 4249.38L6088.78 4249.2Z" fill="black"/>
<path d="M3678.12 4264.75L3494.02 4337.54L3434.19 4371.83L3434.2 4371.83C3445.08 4418.88 3468.56 4460.33 3504.62 4496.19C3554.98 4544.14 3615.44 4568.18 3685.99 4568.31C3756.59 4566.16 3816.35 4540.44 3865.28 4491.15C3913.42 4440.46 3937.52 4380.05 3937.58 4309.91C3937.48 4306.12 3937.31 4302.35 3937.07 4298.62H3937.07L3904.99 4279.42L3904.77 4279.29L3678.12 4264.75Z" fill="black"/>
<path d="M6150.38 4334.27C6147.33 4364.25 6140.56 4384.55 6130.07 4395.19C6118.71 4407.76 6100.4 4415.33 6075.15 4417.89C6049.9 4419.49 6030.87 4414.83 6018.04 4403.92C6005.91 4394.7 5995.32 4374.64 5986.26 4343.75L5895.9 4355.46C5914.86 4387.58 5925.85 4405.25 5928.88 4408.47C5939 4422.24 5949.45 4434.09 5960.22 4444.01C5981.2 4463.24 6005.62 4475.64 6033.5 4481.22C6070.62 4488.21 6106.43 4486.12 6140.93 4474.94C6168.71 4466.06 6193.78 4447.45 6216.13 4419.11C6228.04 4404.35 6241.97 4383.32 6257.94 4356.02L6150.88 4334.37" fill="#5B7176"/>
<path d="M3868.65 4374.99L3778.37 4379.28C3776.8 4408.98 3771.75 4428.84 3763.24 4438.87C3754.4 4450.53 3739.13 4457.19 3717.44 4458.87C3693.95 4459.99 3674.74 4455.54 3659.81 4445.51C3647.09 4437.54 3634.65 4420.14 3622.5 4393.3L3528.18 4397.38C3537.63 4443.52 3557.29 4478.48 3587.17 4502.26C3613.61 4521.99 3653.53 4530.32 3706.96 4527.25C3758.86 4523.26 3796.63 4510.21 3820.27 4488.11C3842.16 4469.37 3858.29 4431.67 3868.64 4375.01" fill="#5B7176"/>
<path d="M3605.57 4355.26C3592.34 4355.52 3581.08 4360.18 3571.79 4369.23C3562.5 4378.8 3557.78 4390.13 3557.62 4403.22C3557.85 4416.53 3562.5 4427.84 3571.59 4437.17C3581.15 4446.46 3592.48 4451.18 3605.59 4451.34C3618.77 4451.17 3630.1 4446.5 3639.57 4437.34C3648.85 4427.76 3653.56 4416.42 3653.7 4403.34C3653.47 4390.03 3648.81 4378.72 3639.71 4369.4C3630.14 4360.12 3618.81 4355.41 3605.69 4355.26" fill="white"/>
<path d="M5972.56 4305.94C5959.61 4306.32 5948.51 4311.18 5939.24 4320.5C5930.35 4330.03 5925.94 4341.31 5926.02 4354.35C5926.45 4367.38 5931.32 4378.47 5940.62 4387.64C5950.07 4396.47 5961.29 4400.87 5974.29 4400.84C5987.23 4400.48 5998.35 4395.64 6007.63 4386.33C6016.55 4376.82 6020.97 4365.54 6020.91 4352.5C6020.49 4339.47 6015.65 4328.37 6006.37 4319.19C5996.93 4310.34 5985.72 4305.93 5972.72 4305.94" fill="white"/>
<path d="M6026.02 6701.9C6003.29 6708.58 5942.62 6713.17 5844.01 6715.68C5757.34 6718.34 5546.75 6721.26 5212.24 6724.42L4930.8 6776.9L4591.85 6736.51C4436.05 6756.93 4319.85 6768.45 4243.25 6771.07C4166.49 6774.89 4056.49 6773.1 3913.26 6765.69C4094.17 6973.53 4254.98 7103.43 4395.69 7155.39C4575.57 7229.34 4806.77 7264.14 5089.3 7259.79C5326.08 7252.19 5509.56 7208.62 5639.72 7129.08C5766.26 7058.9 5894.84 6916.79 6025.48 6702.77" fill="#B86557"/>
<path d="M5244.45 6055.4C5242.2 6055.58 5240.72 6056.01 5240.02 6056.69C5178.32 6099.14 5132.27 6129.37 5101.86 6147.38C5068.89 6167.19 5038.79 6183.26 5011.53 6195.57C4952.48 6222.55 4898.34 6235.59 4849.11 6234.68C4805.81 6234.2 4757.97 6223.92 4705.59 6203.83C4684.47 6195.74 4661.95 6185.85 4638.04 6174.17C4542.68 6123.87 4484.61 6094.48 4463.82 6085.99C4439.16 6074.81 4412.32 6063.78 4383.28 6052.9L4354.21 6042.21C4351.93 6041.96 4350.26 6042.19 4349.22 6042.89C4343.7 6047.55 4343.64 6052.06 4349.04 6056.43C4397.42 6073.99 4438.23 6090.63 4471.48 6106.34C4487.77 6113.93 4504.45 6122.1 4521.52 6130.84L4618.54 6181.6C4636.62 6190.66 4653.04 6198.41 4667.79 6204.84C4722.47 6228.91 4772.55 6243.33 4818.01 6248.1C4877.91 6255.66 4944.11 6242.98 5016.59 6210.06C5064.58 6188.82 5125.74 6152.94 5200.06 6102.41L5249.68 6068.45C5253.48 6062.38 5252.15 6058.07 5245.7 6055.54" fill="black"/>
<path d="M4625.68 4319.28C4623.59 4319.33 4621.8 4320.11 4620.3 4321.61C4618.85 4323.16 4618.14 4324.98 4618.15 4327.06C4618.21 4329.15 4618.99 4330.94 4620.5 4332.44C4622.02 4333.87 4623.83 4334.58 4625.92 4334.58C4628.01 4334.52 4629.8 4333.75 4631.28 4332.27C4632.74 4330.73 4633.46 4328.91 4633.45 4326.83C4633.41 4324.74 4632.64 4322.95 4631.14 4321.44C4629.6 4319.99 4627.78 4319.27 4625.7 4319.27" fill="black"/>
<path d="M6025.99 6701.91C6003.24 6708.59 5942.58 6713.18 5844.01 6715.68C5820.87 6716.39 5788.89 6717.12 5748.07 6717.87C5636.03 6719.92 5457.43 6722.1 5212.24 6724.42L4930.8 6776.9L4591.85 6736.51C4436.05 6756.93 4319.85 6768.45 4243.25 6771.07C4228.34 6771.81 4212.17 6772.34 4194.75 6772.66C4122.5 6773.98 4028.67 6771.66 3913.26 6765.69H3913.26C4006.07 6872.32 4093.59 6958.43 4175.82 7024.03H4175.82C4171.2 7017.13 4167.38 7010.92 4164.36 7005.38C4137.7 6962.99 4133.6 6920.7 4152.05 6878.52H4152.05C4511.45 6936.88 4779.72 6966.5 4956.86 6967.37C4985.83 6968.26 5016.86 6968.39 5049.95 6967.79C5216.38 6964.74 5434.88 6942.89 5705.45 6902.24L5705.47 6902.24L5247.99 7248.4H5247.99C5409.69 7229.63 5540.27 7189.86 5639.72 7129.08C5766.26 7058.9 5894.84 6916.79 6025.48 6702.77L6026.01 6701.91L6025.99 6701.91Z" fill="#89473B"/>
<path d="M4591.85 6736.51C4436.05 6756.93 4319.85 6768.45 4243.25 6771.07C4237.48 6771.36 4231.53 6771.61 4225.38 6771.84H4225.38C4215.64 6772.19 4205.43 6772.47 4194.75 6772.66C4157.65 6773.34 4114.86 6773.06 4066.39 6771.81H4066.39C4026.3 6770.79 3982.33 6769.1 3934.48 6766.76H3934.48L3920.39 6773.86L3914.78 6776.69L3924.53 6778.57H3924.53L4521.39 6893.51C4550.56 6898.56 4578.46 6900.84 4605.08 6900.35C4615.78 6900.15 4626.28 6899.51 4636.57 6898.42C4690.2 6893.84 4754.61 6873.65 4829.8 6837.82C4862.05 6823.06 4904.09 6801.19 4955.93 6772.22L4955.92 6772.22L4930.8 6776.9L4591.85 6736.51Z" fill="#B86557"/>
<path d="M4492.96 6968.83C4451.72 6969.36 4421.36 6977.33 4401.86 6992.74C4383.63 7005.85 4371.08 7031.26 4364.23 7068.95C4530.57 7100.48 4617.21 7116.32 4624.15 7116.48C4673.11 7124.08 4711.83 7127.56 4740.3 7126.93C4777.02 7126.72 4804.92 7118.65 4824.02 7102.7C4841.89 7089.41 4857.23 7062.15 4870.02 7020.91C4761.68 7000.43 4682.34 6986.81 4632 6980.04C4574.09 6971.98 4528.06 6968.24 4493.91 6968.81" fill="#FFAC9D"/>
<path d="M8084.97 3649.31C8040.25 3647.95 7963.38 3663.11 7854.37 3694.8C7837.8 3703.51 7828.56 3716.01 7826.66 3732.29C7825.18 3760.32 7838.85 3777.91 7867.66 3785.06C8029.43 3741.48 8127.57 3732.54 8162.07 3758.22C8198.63 3771.66 8221.16 3831.31 8229.65 3937.15C8235.12 4074.78 8213.83 4225.46 8165.77 4389.19C7949.65 4911.62 7829.93 5237.4 7806.6 5366.55C7929.46 5647.96 7980.18 5815.65 7958.73 5869.6C7950.18 5901.91 7929.83 5925.35 7897.69 5939.94C7868.37 5956.75 7800.77 5974.2 7694.89 5992.28C7688.62 5992.05 7679.59 6000.06 7667.81 6016.33C7624.82 6561.68 7468.45 7064.56 7198.69 7524.97C6830.04 8234.87 6501.1 8705.43 6211.86 8936.67C5834.46 9251.18 5427.64 9420.64 4991.38 9445.06C4639.67 9464.87 4327.2 9337.11 4053.98 9061.78C3937.14 9003.12 3525.81 8422.03 2819.99 7318.5C2644.02 7026.48 2516.62 6757.34 2437.78 6511.08C2339.94 6221.74 2270.07 5813.2 2228.16 5285.44C1912.23 4530.86 1757.39 4123.67 1763.64 4063.9C1748.08 3971.76 1756.74 3927.77 1789.62 3931.91C1822.58 3921.28 1941.79 3957.51 2147.28 4040.61C2177.79 4040.92 2193.26 4021.34 2193.68 3981.85C1914.43 3821.23 1742.68 3795.84 1678.42 3905.69C1647.82 3966.93 1661.55 4085.69 1719.59 4261.98C1760.98 4393.61 1899.49 4741.87 2135.13 5306.76C2175.75 5807.38 2240.01 6197.49 2327.89 6477.08C2398.39 6721.68 2522.24 6996.16 2699.43 7300.53C3428.85 8448.44 3853.72 9053.53 3974.02 9115.78C4265.7 9412.12 4594.61 9553.77 4960.76 9540.74C5425.36 9523.28 5858.07 9350.08 6258.88 9021.17C6568.57 8775.95 6912.48 8286.87 7290.62 7553.94C7555.92 7096.43 7710.02 6604.86 7752.93 6079.25C7930.69 6053.56 8030.1 5990.64 8051.15 5890.49C8077.79 5813.05 8028.84 5637.69 7904.28 5364.43C7923.62 5256.41 8039.46 4945.61 8251.8 4432.05C8298.4 4276.31 8322.93 4133.42 8325.4 4003.38C8335.2 3765.45 8255.63 3647.42 8086.7 3649.28" fill="black"/>
<path d="M4956.36 0.984386C4457.37 7.94625 4020.3 124.188 3645.17 349.71C3422.15 475.796 3143.54 692.126 2809.34 998.7C2667.98 1133.24 2517.26 1304.68 2357.17 1513.03C2135.6 1808.5 2007.27 2112.41 1972.18 2424.77C1925.11 2721.77 1947.59 3225.7 2039.63 3936.55L2348.39 4084.84C2293.79 3602.57 2271.7 3260.87 2282.13 3059.74C2287.14 2856.12 2332.84 2617.64 2419.22 2344.28L2174.68 2620L2423.23 2290.66L2438.56 2073.58C2611.1 1914.39 2743.28 1800.58 2835.11 1732.14C2902.94 1679.95 3004.28 1610.34 3139.13 1523.32C3053.63 1646.66 3061.45 1823.94 3162.59 2055.16C3144.18 1928.95 3151.33 1833.75 3184.04 1769.55C3201.59 1727.05 3249.33 1663.22 3327.26 1578.06C3251.37 1691.16 3230.14 1790.42 3263.55 1875.84C3259.6 1777.54 3301.35 1682.37 3388.8 1590.32C3303.13 1806.8 3301.6 2000.43 3384.22 2171.22C3384.38 2022.13 3410.8 1905.28 3463.48 1820.67C3505.71 1741.46 3619.46 1618.53 3804.75 1451.88C3667.05 1613.86 3588.04 1732.99 3567.73 1809.29C3539.92 1888.18 3548.45 1994.41 3593.33 2127.98C3599.07 1939.88 3669.81 1809.04 3805.53 1735.47C3992.49 1621.28 4221.37 1563.18 4492.15 1561.17L4086.24 2066.21L4597.19 1613.3C4498.44 1873 4457.14 2090.94 4473.29 2267.11C4523.43 1939.29 4605.77 1733.52 4720.29 1649.79C4772.19 1601.1 4824.25 1560.02 4876.47 1526.55L4839.3 1707.46C4821.69 1788.11 4738.77 1903.4 4590.54 2053.33C4784.56 1914.08 5018.67 1722.69 5292.87 1479.18L4834.5 2077.43L5498.77 1501.02L5235.06 1780.09C5427.24 1784.39 5585.64 1711.65 5710.27 1561.87L5568.67 1793.33C5716.88 1672.12 5859.99 1604.56 5998 1590.64C6125.89 1568.75 6378 1582.66 6754.33 1632.37C6855.08 1822.56 7030.62 2033.97 7280.95 2266.59L7283.76 2270.37L7107.9 2171.31L7419.97 2471.55L7186.64 2311.81L7429.28 2751.94L7539.56 3801.19L7665.72 4406.19L7764.03 3923.2C7794.09 3851.6 7852.61 3786.54 7939.59 3728.03C7958.45 3366.84 7966.52 3099.85 7963.81 2927.06C7970.63 2391.4 7861.49 1956.06 7636.41 1621.03C7201.54 964.643 6816.21 543.116 6480.43 356.447C6088.2 119.354 5582.39 0.827818 4962.99 0.869151" fill="#3E2014"/>
<path d="M3735.83 4240.2C3661.31 4241.32 3573.58 4262.57 3472.66 4303.96C3386.13 4338.16 3255.32 4406.3 3080.25 4508.36L3260.36 4501.03C3394.59 4417.48 3495.28 4362.64 3562.41 4336.5C3636.04 4305.93 3705.02 4291.86 3769.36 4294.29C3922.24 4301.02 4069.97 4375.54 4212.57 4517.85L4025.8 4544.12L4270.5 4540.06C4148.99 4423.84 4052.1 4346.3 3979.83 4307.42C3896.73 4260.72 3815.7 4238.31 3736.72 4240.19" fill="black"/>
<path d="M6670.98 4465.26C6563.07 4378.29 6465.05 4318.14 6376.92 4284.8C6266.11 4242.19 6157.75 4220.64 6051.84 4220.15C5963.64 4219.72 5883.55 4237.42 5811.54 4273.27C5743.53 4304.41 5654.02 4368.64 5543.01 4465.95L5801.93 4492.7L5608.2 4439.95C5719.13 4374.95 5803.51 4331.78 5861.34 4310.43C5926.14 4285.2 5986.74 4272.84 6043.16 4273.35C6096.91 4273.53 6153.45 4282.76 6212.79 4301.05C6311.28 4332.61 6411.85 4379.03 6514.51 4440.3L6670.08 4465.12" fill="black"/>
<path d="M4104.55 5796.75C4098.45 5804.34 4089.74 5820.38 4078.41 5844.89C4069.18 5864.9 4061.88 5883.69 4056.5 5901.26C4046.65 5933.8 4043.8 5961.35 4047.94 5983.91C4053.03 6007.93 4065.51 6031.65 4085.37 6055.05C4096.07 6067.69 4109.29 6080.65 4125.04 6093.96C4150.04 6114.41 4164.42 6124.82 4168.15 6125.2L4155.04 6108.46C4137.93 6088.93 4126.78 6075.85 4121.59 6069.25C4113.79 6059.48 4107.24 6050.51 4101.94 6042.32C4089.31 6023.06 4081.28 6004.21 4077.85 5985.79C4073.14 5962.19 4072.61 5938.82 4076.25 5915.67C4077.8 5904.82 4080.14 5892.78 4083.3 5879.55C4084.92 5872.07 4090.73 5850.59 4100.73 5815.13C4102.69 5807.89 4103.95 5801.84 4104.53 5796.98" fill="black"/>
<path d="M5602.43 5621.49L5603.95 5623.57C5605.21 5627.6 5608.05 5633.43 5612.47 5641.06C5635.2 5678.22 5648.32 5700.21 5651.84 5707.05C5659.8 5721.39 5666.22 5734.1 5671.1 5745.2C5682.35 5769.38 5689.78 5796.38 5693.38 5826.2C5696.25 5847.66 5694.68 5872 5688.69 5899.21C5685.98 5911.4 5682.53 5924.09 5678.36 5937.28C5676.66 5943.37 5667.81 5969.01 5651.79 6014.23C5650.69 6017.81 5650.39 6019.4 5650.9 6018.99C5705.92 5936.79 5730.14 5867.68 5723.57 5811.66C5720.18 5785.38 5708.19 5756.04 5687.6 5723.65C5660.89 5683.27 5632.53 5649.25 5602.54 5621.56" fill="black"/>
<path d="M3353.68 3728.52C3241.98 3739.7 3145.77 3776.06 3065.07 3837.6C2986.78 3892.12 2853.26 4023.68 2664.51 4232.3L3106.94 4101.77C3253.41 4068.09 3373.1 4047.52 3466 4040.08C3558 4031.24 3666.8 4030.17 3792.39 4036.89C3902.1 4042.03 4077.35 4057.68 4318.12 4083.83C4160.82 3979.41 4032.87 3907.66 3934.28 3868.57C3839.52 3828.05 3687.98 3785.39 3479.66 3740.6L3171.24 3893.93L3353.51 3728.68" fill="#3E2014"/>
<path d="M8152.9 3821.37C8086.85 3821.6 8024.21 3877.87 7965 3990.19C7879.23 4155.78 7815.72 4330.95 7774.47 4515.72C7761.03 4581.8 7756.67 4641.54 7761.39 4694.94C7763.22 4716.01 7766.61 4737.65 7771.58 4759.87C7795.63 4847.89 7807.26 4893.8 7806.48 4897.58C7811.56 4925.71 7814.71 4959.26 7815.93 4998.24C7818.8 5062.94 7813.58 5179.82 7800.26 5348.89C7803.87 5372.48 7817.38 5385.06 7840.78 5386.65C7861.53 5384.93 7874.48 5374.15 7879.64 5354.31C7885.98 5277.9 7890.54 5212.71 7893.31 5158.76C7898.41 5062.71 7897.78 4985.03 7891.41 4925.71C7888.9 4902.08 7885.2 4879.62 7880.32 4858.34C7857.36 4774.22 7846.27 4731.07 7847.04 4728.89C7842.27 4704.74 7839.83 4679.35 7839.72 4652.71C7838.87 4587.47 7856.49 4496.49 7892.56 4379.76C7960.23 4170.45 8027.3 4023.76 8093.77 3939.7C8113.92 3916.27 8132.72 3903.69 8150.17 3901.96C8160.12 3900.72 8170.79 3902.49 8182.18 3907.27C8190.23 3909.9 8208.49 3920.82 8236.97 3940.01C8242.21 3942.73 8247.41 3944.26 8252.57 3944.62C8275.16 3944.34 8289.31 3933.95 8295.03 3913.45C8298.54 3892.3 8289.86 3876.23 8268.97 3865.25C8225.24 3835.55 8186.87 3820.93 8153.85 3821.37" fill="black"/>
<path d="M2182.51 4022.72L2182.32 4022.72C2157.09 4025.9 2144.05 4040.12 2143.19 4065.39L2187.3 5691.59C2190.48 5715.19 2204.08 5727.88 2228.09 5729.68C2253.52 5726.59 2266.61 5712.24 2267.38 5686.64L2223.27 4060.56C2219.77 4036.96 2206.23 4024.34 2182.65 4022.71" fill="black"/>
<path d="M6532.19 3587.89C6254.99 3637.44 6055.96 3682.55 5935.1 3723.24C5815.53 3760.51 5661.2 3826.86 5472.11 3922.28L5297.7 3986.46L5729.85 4058.08C5983.99 4005.13 6171.13 3970.99 6291.28 3955.66C6428.3 3937.11 6543.3 3930.94 6636.25 3937.14C6717.83 3942.38 6796.97 3958.07 6873.67 3984.21C6937.44 4004.78 7023.45 4045.4 7131.69 4106.05C6989.77 3889.2 6856.76 3750.72 6732.65 3690.62C6690.63 3666.09 6631.38 3636.1 6554.91 3600.64L6414 3691.31L6531.56 3588.46" fill="#3E2014"/>
<path d="M4322.1 6026.51C4307.91 6026.79 4295.47 6030.76 4284.8 6038.42C4275.11 6044.94 4263.97 6057.6 4251.38 6076.4C4260.89 6087.76 4270.08 6095.63 4278.96 6100.01C4286.04 6103.4 4294.65 6104.94 4304.79 6104.62C4308.92 6104.48 4313.45 6104.06 4318.37 6103.36L4360.17 6096.53C4368.59 6095.29 4376.4 6094.4 4383.6 6093.85C4400.34 6092.57 4415.8 6092.95 4429.96 6095C4458.94 6098.36 4503.15 6113.1 4562.6 6139.22C4490.97 6095.72 4438.78 6066.41 4406.02 6051.27C4369.74 6034.09 4341.85 6025.84 4322.36 6026.51" fill="black"/>
<path d="M5498.08 6012.28C5443.38 6002.61 5403.98 5997.48 5379.89 5996.87C5352.53 5995.66 5329.9 5998.47 5312.02 6005.3C5299.41 6009.95 5286.84 6016.91 5274.32 6026.21L5261.96 6035.84C5239.09 6055.44 5221.6 6069.92 5209.49 6079.28C5194.55 6091.08 5172.09 6108.03 5142.12 6130.16L5142.06 6130.33L5181.24 6129.61C5209.98 6127.46 5231.94 6122.03 5247.13 6113.33C5253.39 6109.96 5259.61 6105.77 5265.78 6100.76C5296.66 6073.06 5314.87 6057.64 5320.44 6054.48C5333.38 6045.3 5346.46 6038.33 5359.68 6033.56C5385.71 6023.12 5431.71 6016.04 5497.68 6012.31" fill="black"/>
<path d="M6076.15 6664.55C6060.8 6662.66 6014.71 6688.49 5937.9 6742.03C5794.88 6775.74 5687.62 6800.23 5616.1 6815.5C5341.74 6875.65 5110.78 6908.18 4923.2 6913.09C4768.2 6917.85 4601.73 6904.61 4423.82 6873.37C4307.55 6853.48 4161.1 6820.74 3984.47 6775.17L3885.59 6749.63L3853.18 6727.62C3841.77 6757.72 3841.03 6773.42 3850.97 6774.72C3853.69 6775.62 3857.95 6775.69 3863.74 6774.94L3891.1 6768.87L4153.99 6842.57C4298.14 6876.25 4409.14 6899.91 4486.96 6913.55C4615.29 6936.77 4733.52 6949.63 4841.65 6952.12C5050.03 6957.14 5300.78 6925.2 5593.88 6856.29C5724.46 6826.51 5892.06 6780.82 6096.7 6719.24C6099.71 6682.44 6093.58 6664.23 6078.31 6664.6" fill="black"/>
<path d="M4547.3 4796.07C4604.12 4591.08 4608.62 4418.9 4560.82 4279.53C4522.94 4175.69 4432.64 4101.82 4289.91 4057.92C3962.72 3971.58 3621.68 3933.82 3266.78 3944.65C2983.59 3957.47 2684.58 4020.28 2369.74 4133.07L2423.45 4304.12C2442.56 4433.51 2479.44 4603.71 2534.11 4814.71C2562.56 4920.08 2592.66 5009.61 2624.39 5083.29C2672.43 5199.54 2756.78 5276.75 2877.46 5314.91C3047.96 5367.35 3248.41 5395.35 3478.8 5398.91C3666.94 5400.17 3835.73 5377.19 3985.17 5329.97C4286.76 5237.96 4473.47 5062.42 4545.28 4803.33" fill="white" fill-opacity="0.0588235"/>
<path d="M7362.57 3927.08C7339.82 3839.87 7204.49 3788.34 6956.58 3772.5C6772.85 3761.67 6529.53 3761.15 6226.6 3770.95C6067.62 3778.73 5924.92 3797.55 5798.48 3827.42C5558.9 3882.63 5295.12 4018.79 5007.14 4235.91L5076.01 4469.63C5157.28 4701.52 5225.72 4860.04 5281.33 4945.19C5332 5022.01 5405.38 5080.54 5501.47 5120.8C5623.78 5172.19 5810.96 5203.99 6063.01 5216.2C6369.11 5226.93 6602.51 5212.58 6763.19 5173.15C6927.25 5134.19 7039.43 5050.47 7099.71 4922C7118.46 4883.09 7135.23 4839.89 7150.01 4792.38L7247.93 4425.14L7356.6 4096.9C7374.84 4026.38 7377.25 3971.01 7363.83 3930.78" fill="white" fill-opacity="0.0588235"/>
<path d="M3597.31 3984.07L3334.09 3931.18L2802.25 3976.9L2422.2 4113.16L2453.62 4602.14L2559.97 4959.77L2780.32 5257.67L2980.37 5331.84L3108.59 5319.55C2995.42 5288.47 2914.23 5253.88 2865.01 5215.77C2808.56 5175.46 2760.28 5115.46 2720.19 5035.78C2666.15 4927.97 2625.99 4794.91 2599.71 4636.61C2580.92 4519.79 2585.39 4423.34 2613.12 4347.26C2649.21 4243.09 2736.7 4166.77 2875.58 4118.29C3000.22 4068.75 3240.52 4024.04 3596.48 3984.17" fill="white"/>
<path d="M7268.63 3830.19L6615.3 3757.34L6267.18 3823.41C6597.48 3831.59 6817.77 3866.63 6928.04 3928.54C7057.17 3990.44 7130.08 4103.85 7146.79 4268.78C7162.1 4492.94 7106.72 4691.54 6980.64 4864.58C6887.05 4993.87 6698.81 5106.12 6415.9 5201.31L6995.87 5010.05L7182.61 4749.01L7320.94 4171.33L7268.93 3832.14" fill="white"/>
<path d="M6550.61 3824.48C6892.99 3818.21 7097.8 3876.83 7165.04 4000.32C7203.54 4059.15 7220.09 4143.06 7214.7 4252.04C7191.23 4505.78 7162.7 4674 7129.1 4756.69C7077.39 4906.18 6973.87 5009.31 6818.52 5066.05C6644.05 5135.63 6388.85 5175.18 6052.92 5184.7C6047.35 5184.84 6041.81 5184.97 6036.3 5185.07C5740.7 5190.47 5539.05 5132.33 5431.36 5010.64C5355.96 4938.07 5280.4 4793 5204.67 4575.4L5147.93 4317.38C5144.39 4293.56 5146.24 4271.68 5153.49 4251.73C5201.24 4144.52 5359.33 4048.31 5627.74 3963.11C5902.56 3881.41 6207.7 3835.24 6543.14 3824.61L6546.82 3824.55C6548.08 3824.52 6549.35 3824.5 6550.61 3824.48ZM3282.88 4016.81C3314.1 4016.24 3346.31 4016.01 3379.52 4016.13C3832.28 4025.36 4151.14 4073.54 4336.09 4160.66L4337.09 4161.14C4421.32 4201.43 4476.13 4251.02 4501.52 4309.92C4521.57 4343.59 4524.41 4433.59 4510.06 4579.93C4457.99 4886.15 4372.7 5077.39 4254.18 5153.66C4146.44 5239.99 3925.68 5290.59 3591.91 5305.47C3530.41 5309.48 3472.17 5311.98 3417.2 5312.99C3168.84 5317.53 2986.99 5291.47 2871.65 5234.82C2787.18 5195.26 2719.8 5129.48 2669.51 5037.48C2624.73 4959.93 2582.6 4826.71 2543.12 4637.82C2480.14 4392.98 2509.55 4229.36 2631.35 4146.98C2739.34 4066.17 2956.51 4022.78 3282.88 4016.81ZM6778.94 3696.14C6776.23 3696.19 6773.53 3696.24 6770.85 3696.29L6763.84 3696.41C6762.18 3696.44 6760.53 3696.47 6758.88 3696.5C6368.91 3703.63 6068.89 3726.99 5858.81 3766.57C5603.11 3808.78 5320.97 3903.96 5012.4 4052.12L4659.63 4071.49C4353.68 3978.71 4048.39 3925.44 3743.76 3911.66C3573.17 3900.93 3314.24 3898.73 2966.94 3905.09C2714.74 3909.7 2415.95 3918.82 2070.56 3932.44L2081.33 4299.22C2242.24 4355 2336.73 4411.54 2364.8 4468.84C2380.82 4494.19 2393.77 4523.91 2403.66 4557.99C2450.76 4773.94 2486.96 4908.94 2512.26 4962.99C2547.49 5051.85 2593.25 5125.78 2649.55 5184.78C2793.81 5347.9 3076.4 5427.53 3497.32 5423.66C3888.8 5411.33 4178.8 5337.73 4367.35 5202.86C4443.39 5144.58 4501.74 5071.91 4542.43 4984.84C4568.58 4942.21 4605.83 4814.97 4654.17 4603.11C4663.97 4571.23 4676.76 4541.81 4692.55 4514.84C4731.31 4449.67 4780.73 4412.54 4840.79 4403.47C4844.33 4403.19 4847.84 4403.02 4851.32 4402.96C4910.49 4401.88 4961.48 4431.64 5004.26 4492.25L5187.93 4892.8C5221.14 4957.16 5257.49 5012.01 5296.99 5057.37C5361.57 5133.91 5447.96 5190.78 5556.18 5227.97C5693.38 5275.63 5867.33 5297.54 6078.04 5293.68C6123.62 5292.85 6170.91 5290.81 6219.93 5287.57C6553.75 5261.79 6793.19 5209.85 6938.24 5131.75C7053.83 5072.01 7136.43 4987.58 7186.05 4878.48C7215.18 4843.24 7264.28 4648.54 7333.34 4294.35C7349.65 4235.74 7372.02 4185.87 7400.44 4144.73C7459.17 4053.28 7579.35 3986.02 7760.98 3942.96L7734.51 3699.26C7323.24 3693.05 7004.71 3692.01 6778.94 3696.14Z" fill="black"/>
<path d="M2233.73 4377.48C2233.6 4368.98 2230.36 4361.88 2224.02 4356.16C2191.14 4332.17 2162.33 4311.62 2137.59 4294.53C2073.73 4250.15 2014.47 4214.75 1959.8 4188.33C1913.8 4165.57 1855.78 4139.97 1785.76 4111.53C1776.53 4109.87 1768.59 4111.72 1761.93 4117.08C1755.32 4122.45 1751.81 4129.69 1751.41 4138.83C1751.6 4149.34 1756.2 4157.49 1765.2 4163.3C1870.6 4207.27 1945.44 4242.08 1989.72 4267.72C2034.71 4292.11 2102.6 4337.17 2193.37 4402.9C2203.05 4407.01 2212.11 4406.48 2220.57 4401.31C2228.93 4395.7 2233.32 4387.88 2233.73 4377.85" fill="black"/>
</svg>
